<svg width="142" height="136" viewBox="0 0 142 136" fill="none" xmlns="http://www.w3.org/2000/svg">
<path d="M12.6208 0.754413L12.6186 0.754749L11.7286 0.884749L11.7224 0.885652L11.7224 0.885613C10.8354 1.00388 9.9456 1.16199 9.2702 1.29111L9.2595 1.29316L9.25948 1.29304L8.42948 1.43304L8.42237 1.43424L8.41524 1.43523C7.85266 1.51353 7.29434 1.61989 6.74238 1.75392C6.39902 1.84954 6.04464 1.96453 5.67916 2.09918L5.67827 2.09951C5.26026 2.2526 4.85094 2.42842 4.45214 2.62617C4.12975 2.83149 3.82673 3.06575 3.54686 3.32609L3.54087 3.33166L3.54082 3.33161L3.44083 3.42163L3.44078 3.42167L3.34242 3.51018C2.99242 3.83097 2.68432 4.19466 2.42544 4.59263L2.42127 4.59905L2.42122 4.59901C2.2909 4.79279 2.17803 4.99776 2.08392 5.21149L2.03946 5.31246L1.95663 5.38535L1.71981 5.59375C1.19725 6.12614 0.895653 6.83693 0.876143 7.58306L0.875806 7.59595L0.874806 7.6088C0.745276 9.27275 0.59605 11.4815 0.516313 13.7289V13.7318V13.7357V13.7396V13.7436V13.7475V13.7514V13.7553V13.7593V13.7632V13.7671V13.7711V13.775V13.7789V13.7828V13.7868V13.7907V13.7946V13.7986V13.8025V13.8064V13.8104V13.8143V13.8182V13.8221V13.8261V13.83V13.8339V13.8379V13.8418V13.8457V13.8497V13.8536V13.8575V13.8615V13.8654V13.8693V13.8733V13.8772V13.8811V13.8851V13.889V13.8929V13.8969V13.9008V13.9047V13.9087V13.9126V13.9165V13.9205V13.9244V13.9283V13.9323V13.9362V13.9402V13.9441V13.948V13.952V13.9559V13.9598V13.9638V13.9677V13.9716V13.9756V13.9795V13.9835V13.9874V13.9913V13.9953V13.9992V14.0031V14.0071V14.011V14.015V14.0189V14.0228V14.0268V14.0307V14.0346V14.0386V14.0425V14.0465V14.0504V14.0543V14.0583V14.0622V14.0662V14.0701V14.074V14.078V14.0819V14.0858V14.0898V14.0937V14.0977V14.1016V14.1055V14.1095V14.1134V14.1174V14.1213V14.1252V14.1292V14.1331V14.1371V14.141V14.1449V14.1489V14.1528V14.1568V14.1607V14.1646V14.1686V14.1725V14.1765V14.1804V14.1843V14.1883V14.1922V14.1962V14.2001V14.204V14.208V14.2119V14.2159V14.2198V14.2238V14.2277V14.2316V14.2356V14.2395V14.2435V14.2474V14.2513V14.2553V14.2592V14.2632V14.2671V14.271V14.275V14.2789V14.2829V14.2868V14.2907V14.2947V14.2986V14.3026V14.3065V14.3104V14.3144V14.3183V14.3223V14.3262V14.3301V14.3341V14.338V14.342V14.3459V14.3498V14.3538V14.3577V14.3617V14.3656V14.3695V14.3735V14.3774V14.3813V14.3853V14.3892V14.3932V14.3971V14.401V14.405V14.4089V14.4129V14.4168V14.4207V14.4247V14.4286V14.4325V14.4365V14.4404V14.4444V14.4483V14.4522V14.4562V14.4601V14.4641V14.468V14.4719V14.4759V14.4798V14.4837V14.4877V14.4916V14.4955V14.4995V14.5034V14.5074V14.5113V14.5152V14.5192V14.5231V14.527V14.531V14.5349V14.5388V14.5428V14.5467V14.5506V14.5546V14.5585V14.5624V14.5664V14.5703V14.5742V14.5782V14.5821V14.586V14.59V14.5939V14.5978V14.6018V14.6057V14.6096V14.6136V14.6175V14.6214V14.6254V14.6293V14.6332V14.6372V14.6411V14.645V14.6489V14.6529V14.6568V14.6607V14.6647V14.6686V14.6725V14.6764V14.6804V14.6843V14.6882V14.6922V14.6961V14.7V14.7039V14.7079V14.7118V14.7157V14.7196V14.7236V14.7275V14.7314V14.7354V14.7393V14.7432V14.7471V14.7511V14.755V14.7589V14.7628V14.7667V14.7707V14.7746V14.7785V14.7824V14.7864V14.7903V14.7942V14.7981V14.802V14.806V14.8099V14.8138V14.8177V14.8217V14.8256V14.8295V14.8334V14.8373V14.8412V14.8452V14.8491V14.853V14.8569V14.8608V14.8648V14.8687V14.8726V14.8765V14.8804V14.8843V14.8882V14.8922V14.8961V14.9V14.9039V14.9078V14.9117V14.9156V14.9196V14.9235V14.9274V14.9313V14.9352V14.9391V14.943V14.9469V14.9508V14.9548V14.9587V14.9626V14.9665V14.9704V14.9743V14.9782V14.9821V14.986V14.9899V14.9938V14.9977V15.0016V15.0055V15.0095V15.0134V15.0173V15.0212V15.0251V15.029V15.0329V15.0368V15.0407V15.0446V15.0485V15.0524V15.0563V15.0602V15.0641V15.068V15.0719V15.0758V15.0797V15.0836V15.0875V15.0914V15.0953V15.0992V15.1031V15.107V15.1108V15.1147V15.1186V15.1225V15.1264V15.1303V15.1342V15.1381V15.142V15.1459V15.1498V15.1537V15.1576V15.1614V15.1653V15.1692V15.1731V15.177V15.1809V15.1848V15.1887V15.1925V15.1964V15.2003V15.2042V15.2081V15.212V15.2159V15.2197V15.2236V15.2275V15.2314V15.2353V15.2391V15.243V15.2469V15.2508V15.2547V15.2585V15.2624V15.2663V15.2702V15.274V15.2779V15.2818V15.2857V15.2896V15.2934V15.2973V15.3012V15.305V15.3089V15.3128V15.3167V15.3205V15.3244V15.3283V15.3321V15.336V15.3399V15.3437V15.3476V15.3515V15.3553V15.3592V15.3631V15.3669V15.3708V15.3747V15.3785V15.3824V15.3863V15.3901V15.394V15.3978V15.4017V15.4056V15.4094V15.4133V15.4171V15.421V15.4248V15.4287V15.4326V15.4364V15.4403V15.4441V15.448V15.4518V15.4557V15.4595V15.4634V15.4672V15.4711V15.4749V15.4788V15.4826V15.4865V15.4903V15.4942V15.498V15.5019V15.5057V15.5095V15.5134V15.5172V15.5211V15.5249V15.5288V15.5326V15.5364V15.5403V15.5441V15.5479V15.5518V15.5556V15.5595V15.5633V15.5671V15.571V15.5748V15.5786V15.5825V15.5863V15.5901V15.594V15.5978V15.6016V15.6054V15.6093V15.6131V15.6169V15.6208V15.6246V15.6284V15.6322V15.636V15.6399V15.6437V15.6475V15.6513V15.6552V15.659V15.6628V15.6666V15.6704V15.6742V15.6781V15.6819V15.6857V15.6895V15.6933V15.6971V15.7009V15.7048V15.7086V15.7124V15.7162V15.72V15.7215V15.723V15.7246V15.7261V15.7276V15.7291V15.7307V15.7322V15.7337V15.7352V15.7367V15.7383V15.7398V15.7413V15.7428V15.7443V15.7459V15.7474V15.7489V15.7504V15.7519V15.7535V15.755V15.7565V15.758V15.7595V15.7611V15.7626V15.7641V15.7656V15.7671V15.7686V15.7702V15.7717V15.7732V15.7747V15.7762V15.7777V15.7792V15.7808V15.7823V15.7838V15.7853V15.7868V15.7883V15.7898V15.7914V15.7929V15.7944V15.7959V15.7974V15.7989V15.8004V15.8019V15.8035V15.805V15.8065V15.808V15.8095V15.811V15.8125V15.814V15.8155V15.8171V15.8186V15.8201V15.8216V15.8231V15.8246V15.8261V15.8276V15.8291V15.8306V15.8321V15.8336V15.8352V15.8367V15.8382V15.8397V15.8412V15.8427V15.8442V15.8457V15.8472V15.8487V15.8502V15.8517V15.8532V15.8547V15.8562V15.8577V15.8592V15.8608V15.8623V15.8638V15.8653V15.8668V15.8683V15.8698V15.8713V15.8728V15.8743V15.8758V15.8773V15.8788V15.8803V15.8818V15.8833V15.8848V15.8863V15.8878V15.8893V15.8908V15.8923V15.8938V15.8953V15.8968V15.8983V15.8998V15.9013V15.9028V15.9043V15.9058V15.9073V15.9088V15.9103V15.9118V15.9133V15.9148V15.9163V15.9178V15.9193V15.9208V15.9223V15.9238V15.9253V15.9268V15.9283V15.9297V15.9312V15.9327V15.9342V15.9357V15.9372V15.9387V15.9402V15.9417V15.9432V15.9447V15.9462V15.9477V15.9492V15.9507V15.9522V15.9537V15.9552V15.9566V15.9581V15.9596V15.9611V15.9626V15.9641V15.9656V15.9671V15.9686V15.9701V15.9716V15.9731V15.9746V15.976V15.9775V15.979V15.9805V15.982V15.9835V15.985V15.9865V15.988V15.9895V15.9909V15.9924V15.9939V15.9954V15.9969V15.9984V15.9999V16.0014V16.0029V16.0043V16.0058V16.0073V16.0088V16.0103V16.0118V16.0133V16.0148V16.0162V16.0177V16.0192V16.0207V16.0222V16.0237V16.0252V16.0267V16.0281V16.0296V16.0311V16.0326V16.0341V16.0356V16.0371V16.0385V16.04V16.0415V16.043V16.0445V16.046V16.0474V16.0489V16.0504V16.0519V16.0534V16.0549V16.0563V16.0578V16.0593V16.0608V16.0623V16.0638V16.0652V16.0667V16.0682V16.0697V16.0712V16.0727V16.0741V16.0756V16.0771V16.0786V16.0801V16.0815V16.083V16.0845V16.086V16.0875V16.0889V16.0904V16.0919V16.0934V16.0949V16.0963V16.0978V16.0993V16.1008V16.1023V16.1037V16.1052V16.1067V16.1082V16.1097V16.1111V16.1126V16.1141V16.1156V16.1171V16.1185V16.12V16.1215V16.123V16.1245V16.1259V16.1274V16.1289V16.1304V16.1318V16.1333V16.1348V16.1363V16.1377V16.1392V16.1407V16.1422V16.1437V16.1451V16.1466V16.1481V16.1496V16.151V16.1525V16.154V16.1555V16.1569V16.1584V16.1599V16.1614V16.1628V16.1643V16.1658V16.1673V16.1687V16.1702V16.1717V16.1732V16.1746V16.1761V16.1776V16.1791V16.1805V16.182V16.1835V16.185V16.1864V16.1879V16.1894V16.1909V16.1923V16.1938V16.1953V16.1967V16.1982V16.1997V16.2012V16.2026V16.2041V16.2056V16.2071V16.2085V16.21V16.2115V16.2129V16.2144V16.2159V16.2174V16.2188V16.2203V16.2218V16.2232V16.2247V16.2262V16.2277V16.2291V16.2306V16.2321V16.2336V16.235V16.2365V16.238V16.2394V16.2409V16.2424V16.2438V16.2453V16.2468V16.2483V16.2497V16.2512V16.2527V16.2541V16.2556V16.2571V16.2585V16.26V16.2615V16.263V16.2644V16.2659V16.2674V16.2688V16.2703V16.2718V16.2732V16.2747V16.2762V16.2777V16.2791V16.2806V16.2821V16.2835V16.285V16.2865V16.2879V16.2894V16.2909V16.2923V16.2938V16.2953V16.2967V16.2982V16.2997V16.3011V16.3026V16.3041V16.3056V16.307V16.3085V16.31V16.3114V16.3129V16.3144V16.3158V16.3173V16.3188V16.3202V16.3217V16.3232V16.3246V16.3261V16.3276V16.329V16.3305V16.332V16.3334V16.3349V16.3364V16.3378V16.3393V16.3408V16.3422V16.3437V16.3452V16.3466V16.3481V16.3496V16.351V16.3525V16.354V16.3554V16.3569V16.3584V16.3598V16.3613V16.3628V16.3642V16.3657V16.3672V16.3686V16.3701V16.3716V16.373V16.3745V16.376V16.3774V16.3789V16.3804V16.3818V16.3833V16.3848V16.3862V16.3877V16.3892V16.3906V16.3921V16.3936V16.395V16.3965V16.398V16.3994V16.4009V16.4023V16.4038V16.4053V16.4067V16.4082V16.4097V16.4111V16.4126V16.4141V16.4155V16.417V16.4185V16.4199V16.4214V16.4229V16.4243V16.4258V16.4273V16.4287V16.4302V16.4317V16.4331V16.4346V16.436V16.4375V16.439V16.4404V16.4419V16.4434V16.4448V16.4463V16.4478V16.4492V16.4507V16.4522V16.4536V16.4551V16.4566V16.458V16.4595V16.461V16.4624V16.4639V16.4653V16.4668V16.4683V16.4697V16.4712V16.4727V16.4741V16.4756V16.4771V16.4785V16.48V16.4864V16.4928V16.4992V16.5055V16.5119V16.5183V16.5247V16.5311V16.5375V16.5439V16.5502V16.5566V16.563V16.5694V16.5758V16.5822V16.5886V16.595V16.6013V16.6077V16.6141V16.6205V16.6269V16.6333V16.6397V16.6461V16.6524V16.6588V16.6652V16.6716V16.678V16.6844V16.6908V16.6971V16.7035V16.7099V16.7163V16.7227V16.7291V16.7355V16.7419V16.7482V16.7546V16.761V16.7674V16.7738V16.7802V16.7866V16.7929V16.7993V16.8057V16.8121V16.8185V16.8249V16.8313V16.8377V16.844V16.8504V16.8568V16.8632V16.8696V16.876V16.8824V16.8887V16.8951V16.9015V16.9079V16.9143V16.9207V16.9271V16.9335V16.9398V16.9462V16.9526V16.959V16.9654V16.9718V16.9782V16.9845V16.9909V16.9973V17.0037V17.0101V17.0165V17.0229V17.0293V17.0356V17.042V17.0484V17.0548V17.0612V17.0676V17.074V17.0803V17.0867V17.0931V17.0995V17.1059V17.1123V17.1187V17.1251V17.1314V17.1378V17.1442V17.1506V17.157V17.1634V17.1698V17.1761V17.1825V17.1889V17.1953V17.2017V17.2081V17.2145V17.2209V17.2272V17.2336V17.24V17.2464V17.2528V17.2592V17.2656V17.2719V17.2783V17.2847V17.2911V17.2975V17.3039V17.3103V17.3167V17.323V17.3294V17.3358V17.3422V17.3486V17.355V17.3614V17.3678V17.3741V17.3805V17.3869V17.3933V17.3997V17.4061V17.4125V17.4188V17.4252V17.4316V17.438V17.4444V17.4508V17.4572V17.4636V17.4699V17.4763V17.4827V17.4891V17.4955V17.5019V17.5083V17.5146V17.521V17.5274V17.5338V17.5402V17.5466V17.553V17.5594V17.5657V17.5721V17.5785V17.5849V17.5913V17.5977V17.6041V17.6104V17.6168V17.6232V17.6296V17.636V17.6424V17.6488V17.6552V17.6615V17.6679V17.6743V17.6807V17.6871V17.6935V17.6999V17.7062V17.7126V17.719V17.7254V17.7318V17.7382V17.7446V17.751V17.7573V17.7637V17.7701V17.7765V17.7829V17.7893V17.7957V17.802V17.8084V17.8148V17.8212V17.8276V17.834V17.8404V17.8468V17.8531V17.8595V17.8659V17.8723V17.8787V17.8851V17.8915V17.8978V17.9042V17.9106V17.917V17.9234V17.9298V17.9362V17.9426V17.9489V17.9553V17.9617V17.9681V17.9745V17.9809V17.9873V17.9937V18V18.0064V18.0128V18.0192V18.0256V18.032V18.0384V18.0447V18.0511V18.0575V18.0639V18.0703V18.0767V18.0831V18.0895V18.0958V18.1022V18.1086V18.115V18.1214V18.1278V18.1342V18.1405V18.1469V18.1533V18.1597V18.1661V18.1725V18.1789V18.1853V18.1916V18.198V18.2044V18.2108V18.2172V18.2236V18.23V18.2363V18.2427V18.2491V18.2555V18.2619V18.2683V18.2747V18.2811V18.2874V18.2938V18.3002V18.3066V18.313V18.3194V18.3258V18.3321V18.3385V18.3449V18.3513V18.3577V18.3641V18.3705V18.3769V18.3832V18.3896V18.396V18.4024V18.4088V18.4152V18.4216V18.4279V18.4343V18.4407V18.4471V18.4535V18.4599V18.4663V18.4727V18.479V18.4854V18.4918V18.4982V18.5046V18.511V18.5174V18.5237V18.5301V18.5365V18.5429V18.5493V18.5557V18.5621V18.5685V18.5748V18.5812V18.5876V18.594V18.6004V18.6068V18.6132V18.6195V18.6259V18.6323V18.6387V18.6451V18.6515V18.6579V18.6643V18.6706V18.677V18.6834V18.6898V18.6962V18.7026V18.709V18.7154V18.7217V18.7281V18.7345V18.7409V18.7473V18.7537V18.7601V18.7664V18.7728V18.7792V18.7856V18.792V18.7984V18.8048V18.8112V18.8175V18.8239V18.8303V18.8367V18.8431V18.8495V18.8559V18.8622V18.8686V18.875V18.8814V18.8878V18.8942V18.9006V18.907V18.9133V18.9197V18.9261V18.9325V18.9389V18.9453V18.9517V18.958V18.9644V18.9708V18.9772V18.9836V18.99V18.9964V19.0028V19.0091V19.0155V19.0219V19.0283V19.0347V19.0411V19.0475V19.0538V19.0602V19.0666V19.073V19.0794V19.0858V19.0922V19.0986V19.1049V19.1113V19.1177V19.1241V19.1305V19.1369V19.1433V19.1496V19.156V19.1624V19.1688V19.1752V19.1816V19.188V19.1944V19.2007V19.2071V19.2135V19.2199V19.2263V19.2327V19.2391V19.2454V19.2518V19.2582V19.2646V19.271V19.2774V19.2838V19.2902V19.2965V19.3029V19.3093V19.3157V19.3221V19.3285V19.3349V19.3412V19.3476V19.354V19.3604V19.3668V19.3732V19.3796V19.386V19.3923V19.3987V19.4051V19.4115V19.4179V19.4243V19.4307V19.437V19.4434V19.4498V19.4562V19.4626V19.469V19.4754V19.4818V19.4881V19.4945V19.5009V19.5073V19.5137V19.5201V19.5265V19.5329V19.5392V19.5456V19.552V19.5584V19.5648V19.5712V19.5776V19.5839V19.5903V19.5967V19.6031V19.6095V19.6159V19.6223V19.6287V19.635V19.6414V19.6478V19.6542V19.6606V19.667V19.6734V19.6797V19.6861V19.6925V19.6989V19.7053V19.7117V19.7181V19.7245V19.7308V19.7372V19.7436V19.75L12.6208 0.754413ZM12.6208 0.754413C12.7712 0.731754 12.9192 0.708131 13.0654 0.684808C13.6601 0.589929 14.2237 0.5 14.7863 0.5H15.9763V0L12.6208 0.754413ZM0.516313 23.9719V23.98V23.9719ZM0.516313 23.9719V23.9637M0.516313 23.9719V23.9637M0.516313 23.9637V23.9556M0.516313 23.9637V23.9556M0.516313 23.9556V23.9474M0.516313 23.9556V23.9474M0.516313 23.9474V23.9393M0.516313 23.9474V23.9393M0.516313 23.9393V23.9311M0.516313 23.9393V23.9311M0.516313 23.9311V23.923M0.516313 23.9311V23.923M0.516313 23.923V23.9148M0.516313 23.923V23.9148M0.516313 23.9148V23.9067M0.516313 23.9148V23.9067M0.516313 23.9067V23.8985M0.516313 23.9067V23.8985M0.516313 23.8985V23.8904M0.516313 23.8985V23.8904M0.516313 23.8904V23.8822M0.516313 23.8904V23.8822M0.516313 23.8822V23.874M0.516313 23.8822V23.874M0.516313 23.874V23.8659M0.516313 23.874V23.8659M0.516313 23.8659V23.8577M0.516313 23.8659V23.8577M0.516313 23.8577V23.8496M0.516313 23.8577V23.8496M0.516313 23.8496V23.8414M0.516313 23.8496V23.8414M0.516313 23.8414V23.8332M0.516313 23.8414V23.8332M0.516313 23.8332V23.8251M0.516313 23.8332V23.8251M0.516313 23.8251V23.8169M0.516313 23.8251V23.8169M0.516313 23.8169V23.8088M0.516313 23.8169V23.8088M0.516313 23.8088V23.8006M0.516313 23.8088V23.8006M0.516313 23.8006V23.7924M0.516313 23.8006V23.7924M0.516313 23.7924V23.7843M0.516313 23.7924V23.7843M0.516313 23.7843V23.7761M0.516313 23.7843V23.7761M0.516313 23.7761V23.7679M0.516313 23.7761V23.7679M0.516313 23.7679V23.7598M0.516313 23.7679V23.7598M0.516313 23.7598V23.7516M0.516313 23.7598V23.7516M0.516313 23.7516V23.7434M0.516313 23.7516V23.7434M0.516313 23.7434V23.7353M0.516313 23.7434V23.7353M0.516313 23.7353V23.7271M0.516313 23.7353V23.7271M0.516313 23.7271V23.7189M0.516313 23.7271V23.7189M0.516313 23.7189V23.7107M0.516313 23.7189V23.7107M0.516313 23.7107V23.7026M0.516313 23.7107V23.7026M0.516313 23.7026V23.6944M0.516313 23.7026V23.6944M0.516313 23.6944V23.6862M0.516313 23.6944V23.6862M0.516313 23.6862V23.678M0.516313 23.6862V23.678M0.516313 23.678V23.6699M0.516313 23.678V23.6699M0.516313 23.6699V23.6617M0.516313 23.6699V23.6617M0.516313 23.6617V23.6535M0.516313 23.6617V23.6535M0.516313 23.6535V23.6453M0.516313 23.6535V23.6453M0.516313 23.6453V23.6372M0.516313 23.6453V23.6372M0.516313 23.6372V23.629M0.516313 23.6372V23.629M0.516313 23.629V23.6208M0.516313 23.629V23.6208M0.516313 23.6208V23.6126M0.516313 23.6208V23.6126M0.516313 23.6126V23.6044M0.516313 23.6126V23.6044M0.516313 23.6044V23.5962M0.516313 23.6044V23.5962M0.516313 23.5962V23.5881M0.516313 23.5962V23.5881M0.516313 23.5881V23.5799M0.516313 23.5881V23.5799M0.516313 23.5799V23.5717M0.516313 23.5799V23.5717M0.516313 23.5717V23.5635M0.516313 23.5717V23.5635M0.516313 23.5635V23.5553M0.516313 23.5635V23.5553M0.516313 23.5553V23.5471M0.516313 23.5553V23.5471M0.516313 23.5471V23.5389M0.516313 23.5471V23.5389M0.516313 23.5389V23.5307M0.516313 23.5389V23.5307M0.516313 23.5307V23.5225M0.516313 23.5307V23.5225M0.516313 23.5225V23.5144M0.516313 23.5225V23.5144M0.516313 23.5144V23.5062M0.516313 23.5144V23.5062M0.516313 23.5062V23.498M0.516313 23.5062V23.498M0.516313 23.498V23.4898M0.516313 23.498V23.4898M0.516313 23.4898V23.4816M0.516313 23.4898V23.4816M0.516313 23.4816V23.4734M0.516313 23.4816V23.4734M0.516313 23.4734V23.4652M0.516313 23.4734V23.4652M0.516313 23.4652V23.457M0.516313 23.4652V23.457M0.516313 23.457V23.4488M0.516313 23.457V23.4488M0.516313 23.4488V23.4406M0.516313 23.4488V23.4406M0.516313 23.4406V23.4324M0.516313 23.4406V23.4324M0.516313 23.4324V23.4242M0.516313 23.4324V23.4242M0.516313 23.4242V23.416M0.516313 23.4242V23.416M0.516313 23.416V23.4078M0.516313 23.416V23.4078M0.516313 23.4078V23.3996M0.516313 23.4078V23.3996M0.516313 23.3996V23.3914M0.516313 23.3996V23.3914M0.516313 23.3914V23.3832M0.516313 23.3914V23.3832M0.516313 23.3832V23.375M0.516313 23.3832V23.375M0.516313 23.375V23.3668M0.516313 23.375V23.3668M0.516313 23.3668V23.3586M0.516313 23.3668V23.3586M0.516313 23.3586V23.3504M0.516313 23.3586V23.3504M0.516313 23.3504V23.3421M0.516313 23.3504V23.3421M0.516313 23.3421V23.3339M0.516313 23.3421V23.3339M0.516313 23.3339V23.3257M0.516313 23.3339V23.3257M0.516313 23.3257V23.3175M0.516313 23.3257V23.3175M0.516313 23.3175V23.3093M0.516313 23.3175V23.3093M0.516313 23.3093V23.3011M0.516313 23.3093V23.3011M0.516313 23.3011V23.2929M0.516313 23.3011V23.2929M0.516313 23.2929V23.2847M0.516313 23.2929V23.2847M0.516313 23.2847V23.2765M0.516313 23.2847V23.2765M0.516313 23.2765V23.2683M0.516313 23.2765V23.2683M0.516313 23.2683V23.26M0.516313 23.2683V23.26M0.516313 23.26V23.2518M0.516313 23.26V23.2518M0.516313 23.2518V23.2436M0.516313 23.2518V23.2436M0.516313 23.2436V23.2354M0.516313 23.2436V23.2354M0.516313 23.2354V23.2272M0.516313 23.2354V23.2272M0.516313 23.2272V23.219M0.516313 23.2272V23.219M0.516313 23.219V23.2107M0.516313 23.219V23.2107M0.516313 23.2107V23.2025M0.516313 23.2107V23.2025M0.516313 23.2025V23.1943M0.516313 23.2025V23.1943M0.516313 23.1943V23.1861M0.516313 23.1943V23.1861M0.516313 23.1861V23.1779M0.516313 23.1861V23.1779M0.516313 23.1779V23.1696M0.516313 23.1779V23.1696M0.516313 23.1696V23.1614M0.516313 23.1696V23.1614M0.516313 23.1614V23.1532M0.516313 23.1614V23.1532M0.516313 23.1532V23.145M0.516313 23.1532V23.145M0.516313 23.145V23.1367M0.516313 23.145V23.1367M0.516313 23.1367V23.1285M0.516313 23.1367V23.1285M0.516313 23.1285V23.1203M0.516313 23.1285V23.1203M0.516313 23.1203V23.1121M0.516313 23.1203V23.1121M0.516313 23.1121V23.1038M0.516313 23.1121V23.1038M0.516313 23.1038V23.0956M0.516313 23.1038V23.0956M0.516313 23.0956V23.0874M0.516313 23.0956V23.0874M0.516313 23.0874V23.0792M0.516313 23.0874V23.0792M0.516313 23.0792V23.0709M0.516313 23.0792V23.0709M0.516313 23.0709V23.0627M0.516313 23.0709V23.0627M0.516313 23.0627V23.0545M0.516313 23.0627V23.0545M0.516313 23.0545V23.0462M0.516313 23.0545V23.0462M0.516313 23.0462V23.038M0.516313 23.0462V23.038M0.516313 23.038V23.0298M0.516313 23.038V23.0298M0.516313 23.0298V23.0215M0.516313 23.0298V23.0215M0.516313 23.0215V23.0133M0.516313 23.0215V23.0133M0.516313 23.0133V23.0051M0.516313 23.0133V23.0051M0.516313 23.0051V22.9968M0.516313 23.0051V22.9968M0.516313 22.9968V22.9886M0.516313 22.9968V22.9886M0.516313 22.9886V22.9804M0.516313 22.9886V22.9804M0.516313 22.9804V22.9721M0.516313 22.9804V22.9721M0.516313 22.9721V22.9639M0.516313 22.9721V22.9639M0.516313 22.9639V22.9557M0.516313 22.9639V22.9557M0.516313 22.9557V22.9474M0.516313 22.9557V22.9474M0.516313 22.9474V22.9392M0.516313 22.9474V22.9392M0.516313 22.9392V22.9309M0.516313 22.9392V22.9309M0.516313 22.9309V22.9227M0.516313 22.9309V22.9227M0.516313 22.9227V22.9145M0.516313 22.9227V22.9145M0.516313 22.9145V22.9062M0.516313 22.9145V22.9062M0.516313 22.9062V22.898M0.516313 22.9062V22.898M0.516313 22.898V22.8897M0.516313 22.898V22.8897M0.516313 22.8897V22.8815M0.516313 22.8897V22.8815M0.516313 22.8815V22.8732M0.516313 22.8815V22.8732M0.516313 22.8732V22.865M0.516313 22.8732V22.865M0.516313 22.865V22.8568M0.516313 22.865V22.8568M0.516313 22.8568V22.8485M0.516313 22.8568V22.8485M0.516313 22.8485V22.8403M0.516313 22.8485V22.8403M0.516313 22.8403V22.832M0.516313 22.8403V22.832M0.516313 22.832V22.8238M0.516313 22.832V22.8238M0.516313 22.8238V22.8155M0.516313 22.8238V22.8155M0.516313 22.8155V22.8073M0.516313 22.8155V22.8073M0.516313 22.8073V22.799M0.516313 22.8073V22.799M0.516313 22.799V22.7908M0.516313 22.799V22.7908M0.516313 22.7908V22.7825M0.516313 22.7908V22.7825M0.516313 22.7825V22.7743M0.516313 22.7825V22.7743M0.516313 22.7743V22.766M0.516313 22.7743V22.766M0.516313 22.766V22.7578M0.516313 22.766V22.7578M0.516313 22.7578V22.7495M0.516313 22.7578V22.7495M0.516313 22.7495V22.7413M0.516313 22.7495V22.7413M0.516313 22.7413V22.733M0.516313 22.7413V22.733M0.516313 22.733V22.7248M0.516313 22.733V22.7248M0.516313 22.7248V22.7165M0.516313 22.7248V22.7165M0.516313 22.7165V22.7083M0.516313 22.7165V22.7083M0.516313 22.7083V22.7M0.516313 22.7083V22.7M0.516313 22.7V22.6918M0.516313 22.7V22.6918M0.516313 22.6918V22.6835M0.516313 22.6918V22.6835M0.516313 22.6835V22.6752M0.516313 22.6835V22.6752M0.516313 22.6752V22.667M0.516313 22.6752V22.667M0.516313 22.667V22.6587M0.516313 22.667V22.6587M0.516313 22.6587V22.6505M0.516313 22.6587V22.6505M0.516313 22.6505V22.6422M0.516313 22.6505V22.6422M0.516313 22.6422V22.634M0.516313 22.6422V22.634M0.516313 22.634V22.6257M0.516313 22.634V22.6257M0.516313 22.6257V22.6174M0.516313 22.6257V22.6174M0.516313 22.6174V22.6092M0.516313 22.6174V22.6092M0.516313 22.6092V22.6009M0.516313 22.6092V22.6009M0.516313 22.6009V22.5927M0.516313 22.6009V22.5927M0.516313 22.5927V22.5844M0.516313 22.5927V22.5844M0.516313 22.5844V22.5761M0.516313 22.5844V22.5761M0.516313 22.5761V22.5679M0.516313 22.5761V22.5679M0.516313 22.5679V22.5596M0.516313 22.5679V22.5596M0.516313 22.5596V22.5513M0.516313 22.5596V22.5513M0.516313 22.5513V22.5431M0.516313 22.5513V22.5431M0.516313 22.5431V22.5348M0.516313 22.5431V22.5348M0.516313 22.5348V22.5266M0.516313 22.5348V22.5266M0.516313 22.5266V22.5183M0.516313 22.5266V22.5183M0.516313 22.5183V22.51M0.516313 22.5183V22.51M0.516313 22.51V22.5018M0.516313 22.51V22.5018M0.516313 22.5018V22.4935M0.516313 22.5018V22.4935M0.516313 22.4935V22.4852M0.516313 22.4935V22.4852M0.516313 22.4852V22.477M0.516313 22.4852V22.477M0.516313 22.477V22.4687M0.516313 22.477V22.4687M0.516313 22.4687V22.4604M0.516313 22.4687V22.4604M0.516313 22.4604V22.4522M0.516313 22.4604V22.4522M0.516313 22.4522V22.4439M0.516313 22.4522V22.4439M0.516313 22.4439V22.4356M0.516313 22.4439V22.4356M0.516313 22.4356V22.4273M0.516313 22.4356V22.4273M0.516313 22.4273V22.4191M0.516313 22.4273V22.4191M0.516313 22.4191V22.4108M0.516313 22.4191V22.4108M0.516313 22.4108V22.4025M0.516313 22.4108V22.4025M0.516313 22.4025V22.3943M0.516313 22.4025V22.3943M0.516313 22.3943V22.386M0.516313 22.3943V22.386M0.516313 22.386V22.3777M0.516313 22.386V22.3777M0.516313 22.3777V22.3694M0.516313 22.3777V22.3694M0.516313 22.3694V22.3612M0.516313 22.3694V22.3612M0.516313 22.3612V22.3529M0.516313 22.3612V22.3529M0.516313 22.3529V22.3446M0.516313 22.3529V22.3446M0.516313 22.3446V22.3364M0.516313 22.3446V22.3364M0.516313 22.3364V22.3281M0.516313 22.3364V22.3281M0.516313 22.3281V22.3198M0.516313 22.3281V22.3198M0.516313 22.3198V22.3115M0.516313 22.3198V22.3115M0.516313 22.3115V22.3033M0.516313 22.3115V22.3033M0.516313 22.3033V22.295M0.516313 22.3033V22.295M0.516313 22.295V22.2867M0.516313 22.295V22.2867M0.516313 22.2867V22.2784M0.516313 22.2867V22.2784M0.516313 22.2784V22.2702M0.516313 22.2784V22.2702M0.516313 22.2702V22.2619M0.516313 22.2702V22.2619M0.516313 22.2619V22.2536M0.516313 22.2619V22.2536M0.516313 22.2536V22.2453M0.516313 22.2536V22.2453M0.516313 22.2453V22.237M0.516313 22.2453V22.237M0.516313 22.237V22.2288M0.516313 22.237V22.2288M0.516313 22.2288V22.2205M0.516313 22.2288V22.2205M0.516313 22.2205V22.2122M0.516313 22.2205V22.2122M0.516313 22.2122V22.2039M0.516313 22.2122V22.2039M0.516313 22.2039V22.1956M0.516313 22.2039V22.1956M0.516313 22.1956V22.1874M0.516313 22.1956V22.1874M0.516313 22.1874V22.1791M0.516313 22.1874V22.1791M0.516313 22.1791V22.1708M0.516313 22.1791V22.1708M0.516313 22.1708V22.1625M0.516313 22.1708V22.1625M0.516313 22.1625V22.1542M0.516313 22.1625V22.1542M0.516313 22.1542V22.146M0.516313 22.1542V22.146M0.516313 22.146V22.1377M0.516313 22.146V22.1377M0.516313 22.1377V22.1294M0.516313 22.1377V22.1294M0.516313 22.1294V22.1211M0.516313 22.1294V22.1211M0.516313 22.1211V22.1128M0.516313 22.1211V22.1128M0.516313 22.1128V22.1045M0.516313 22.1128V22.1045M0.516313 22.1045V22.0963M0.516313 22.1045V22.0963M0.516313 22.0963V22.088M0.516313 22.0963V22.088M0.516313 22.088V22.0797M0.516313 22.088V22.0797M0.516313 22.0797V22.0714M0.516313 22.0797V22.0714M0.516313 22.0714V22.0631M0.516313 22.0714V22.0631M0.516313 22.0631V22.0548M0.516313 22.0631V22.0548M0.516313 22.0548V22.0466M0.516313 22.0548V22.0466M0.516313 22.0466V22.0383M0.516313 22.0466V22.0383M0.516313 22.0383V22.03M0.516313 22.0383V22.03M0.516313 22.03V22.0217M0.516313 22.03V22.0217M0.516313 22.0217V22.0134M0.516313 22.0217V22.0134M0.516313 22.0134V22.0051M0.516313 22.0134V22.0051M0.516313 22.0051V21.9968M0.516313 22.0051V21.9968M0.516313 21.9968V21.9885M0.516313 21.9968V21.9885M0.516313 21.9885V21.9803M0.516313 21.9885V21.9803M0.516313 21.9803V21.972M0.516313 21.9803V21.972M0.516313 21.972V21.9637M0.516313 21.972V21.9637M0.516313 21.9637V21.9554M0.516313 21.9637V21.9554M0.516313 21.9554V21.9471M0.516313 21.9554V21.9471M0.516313 21.9471V21.9388M0.516313 21.9471V21.9388M0.516313 21.9388V21.9305M0.516313 21.9388V21.9305M0.516313 21.9305V21.9222M0.516313 21.9305V21.9222M0.516313 21.9222V21.9139M0.516313 21.9222V21.9139M0.516313 21.9139V21.9057M0.516313 21.9139V21.9057M0.516313 21.9057V21.8974M0.516313 21.9057V21.8974M0.516313 21.8974V21.8891M0.516313 21.8974V21.8891M0.516313 21.8891V21.8808M0.516313 21.8891V21.8808M0.516313 21.8808V21.8725M0.516313 21.8808V21.8725M0.516313 21.8725V21.8642M0.516313 21.8725V21.8642M0.516313 21.8642V21.8559M0.516313 21.8642V21.8559M0.516313 21.8559V21.8476M0.516313 21.8559V21.8476M0.516313 21.8476V21.8393M0.516313 21.8476V21.8393M0.516313 21.8393V21.831M0.516313 21.8393V21.831M0.516313 21.831V21.8227M0.516313 21.831V21.8227M0.516313 21.8227V21.8145M0.516313 21.8227V21.8145M0.516313 21.8145V21.8062M0.516313 21.8145V21.8062M0.516313 21.8062V21.7979M0.516313 21.8062V21.7979M0.516313 21.7979V21.7896M0.516313 21.7979V21.7896M0.516313 21.7896V21.7813M0.516313 21.7896V21.7813M0.516313 21.7813V21.773M0.516313 21.7813V21.773M0.516313 21.773V21.7647M0.516313 21.773V21.7647M0.516313 21.7647V21.7564M0.516313 21.7647V21.7564M0.516313 21.7564V21.7481M0.516313 21.7564V21.7481M0.516313 21.7481V21.7398M0.516313 21.7481V21.7398M0.516313 21.7398V21.7315M0.516313 21.7398V21.7315M0.516313 21.7315V21.7232M0.516313 21.7315V21.7232M0.516313 21.7232V21.7149M0.516313 21.7232V21.7149M0.516313 21.7149V21.7066M0.516313 21.7149V21.7066M0.516313 21.7066V21.6983M0.516313 21.7066V21.6983M0.516313 21.6983V21.69M0.516313 21.6983V21.69M0.516313 21.69V21.6817M0.516313 21.69V21.6817M0.516313 21.6817V21.6735M0.516313 21.6817V21.6735M0.516313 21.6735V21.6652M0.516313 21.6735V21.6652M0.516313 21.6652V21.6569M0.516313 21.6652V21.6569M0.516313 21.6569V21.6486M0.516313 21.6569V21.6486M0.516313 21.6486V21.6403M0.516313 21.6486V21.6403M0.516313 21.6403V21.632M0.516313 21.6403V21.632M0.516313 21.632V21.6237M0.516313 21.632V21.6237M0.516313 21.6237V21.6154M0.516313 21.6237V21.6154M0.516313 21.6154V21.6071M0.516313 21.6154V21.6071M0.516313 21.6071V21.5988M0.516313 21.6071V21.5988M0.516313 21.5988V21.5905M0.516313 21.5988V21.5905M0.516313 21.5905V21.5822M0.516313 21.5905V21.5822M0.516313 21.5822V21.5739M0.516313 21.5822V21.5739M0.516313 21.5739V21.5656M0.516313 21.5739V21.5656M0.516313 21.5656V21.5573M0.516313 21.5656V21.5573M0.516313 21.5573V21.549M0.516313 21.5573V21.549M0.516313 21.549V21.5407M0.516313 21.549V21.5407M0.516313 21.5407V21.5324M0.516313 21.5407V21.5324M0.516313 21.5324V21.5241M0.516313 21.5324V21.5241M0.516313 21.5241V21.5158M0.516313 21.5241V21.5158M0.516313 21.5158V21.5075M0.516313 21.5158V21.5075M0.516313 21.5075V21.4992M0.516313 21.5075V21.4992M0.516313 21.4992V21.4909V21.4992ZM5.50018 40.1634L5.48868 40.1583L5.47694 40.1538L5.29631 40.62L5.50018 40.1634Z" fill="#03A9F4" stroke="black"/>
<path d="M78.6714 26.2787L78.6738 26.2792C79.24 26.3979 79.7952 26.5638 80.3336 26.7753L80.3431 26.779L80.3528 26.7823C81.0652 27.0291 81.7418 27.369 82.3651 27.7932L82.365 27.7933L82.3756 27.8002C83.0278 28.2205 83.53 28.8367 83.8101 29.5603L83.8162 29.576L83.8233 29.5912C84.0143 30.0008 84.1764 30.4233 84.3081 30.8556L84.3089 30.8581C84.4838 31.4216 84.6151 31.9977 84.7015 32.5813C85.0919 35.3535 85.211 38.1571 85.0572 40.9524L85.0564 40.9661V40.9799C85.0564 42.2967 84.997 43.6256 84.9369 44.9573L84.9368 44.9573L84.9365 44.9681C84.9019 46.4346 84.7833 47.898 84.5812 49.351L84.5799 49.3599L84.579 49.369C84.5287 49.8605 84.4172 50.3438 84.247 50.8076L84.2456 50.8115C84.101 51.2159 83.9253 51.6085 83.72 51.9857C83.5143 52.3435 83.2799 52.684 83.019 53.0038L83.0131 53.011L83.0075 53.0184C82.7898 53.3065 82.5399 53.5689 82.2628 53.8004C81.9728 54.0256 81.6644 54.2258 81.3406 54.3989L81.3397 54.3994C81.1093 54.5232 80.8704 54.6305 80.6247 54.7203L80.6126 54.7247L80.6008 54.7297C80.3242 54.8473 80.0403 54.9471 79.751 55.0285L79.7484 55.0293C79.4691 55.1095 79.1849 55.1714 78.8976 55.2146C78.7466 55.2339 78.6029 55.2542 78.4636 55.2739C78.1437 55.319 77.8465 55.361 77.5346 55.3809L77.5329 55.381C76.2112 55.4698 74.8885 55.4896 73.5847 55.4502L71.4995 55.3608L70.5112 55.2719L70.5109 55.2719C70.0658 55.2321 69.6232 55.1679 69.1851 55.0797L69.1752 55.0777L69.1652 55.0761C68.8028 55.0183 68.4474 54.9233 68.1045 54.7926L68.1045 54.7926L68.0995 54.7908C67.6341 54.6191 67.1896 54.3954 66.7743 54.1242C66.3535 53.8363 65.9911 53.4713 65.7064 53.0484C65.4329 52.6081 65.2094 52.1388 65.0398 51.649C64.7968 50.9199 64.6474 50.1628 64.5953 49.3959L64.5946 49.386L64.5935 49.3762C64.4625 48.1623 64.41 46.9413 64.4363 45.7206L64.4364 45.7206V45.7099C64.4364 44.0323 64.4772 42.3605 64.5182 40.6826C64.5444 39.611 64.5707 38.5369 64.5864 37.4571L64.5864 37.4571V37.4499V37.442V37.4342V37.4264V37.4186V37.4108V37.403V37.3952V37.3874V37.3795V37.3717V37.3639V37.3561V37.3483V37.3405V37.3327V37.3249V37.317V37.3092V37.3014V37.2936V37.2858V37.278V37.2702V37.2624V37.2545V37.2467V37.2389V37.2311V37.2233V37.2155V37.2077V37.1999V37.192V37.1842V37.1764V37.1686V37.1608V37.153V37.1452V37.1374V37.1295V37.1217V37.1139V37.1061V37.0983V37.0905V37.0827V37.0749V37.067V37.0592V37.0514V37.0436V37.0358V37.028V37.0202V37.0124V37.0045V36.9967V36.9889V36.9811V36.9733V36.9655V36.9577V36.9499V36.942V36.9342V36.9264V36.9186V36.9108V36.903V36.8952V36.8874V36.8795V36.8717V36.8639V36.8561V36.8483V36.8405V36.8327V36.8249V36.817V36.8092V36.8014V36.7936V36.7858V36.778V36.7702V36.7624V36.7545V36.7467V36.7389V36.7311V36.7233V36.7155V36.7077V36.6999V36.692V36.6842V36.6764V36.6686V36.6608V36.653V36.6452V36.6374V36.6295V36.6217V36.6139V36.6061V36.5983V36.5905V36.5827V36.5749V36.567V36.5592V36.5514V36.5436V36.5358V36.528V36.5202V36.5124V36.5045V36.4967V36.4889V36.4811V36.4733V36.4655V36.4577V36.4499V36.442V36.4342V36.4264V36.4186V36.4108V36.403V36.3952V36.3874V36.3795V36.3717V36.3639V36.3561V36.3483V36.3405V36.3327V36.3249V36.317V36.3092V36.3014V36.2936V36.2858V36.278V36.2702V36.2624V36.2545V36.2467V36.2389V36.2311V36.2233V36.2155V36.2077V36.1999V36.192V36.1842V36.1764V36.1686V36.1608V36.153V36.1452V36.1374V36.1295V36.1217V36.1139V36.1061V36.0983V36.0905V36.0827V36.0749V36.067V36.0592V36.0514V36.0436V36.0358V36.028V36.0202V36.0124V36.0045V35.9967V35.9889V35.9811V35.9733V35.9655V35.9577V35.9499V35.942V35.9342V35.9264V35.9186V35.9108V35.903V35.8952V35.8874V35.8795V35.8717V35.8639V35.8561V35.8483V35.8405V35.8327V35.8249V35.817V35.8092V35.8014V35.7936V35.7858V35.778V35.7702V35.7624V35.7545V35.7467V35.7389V35.7311V35.7233V35.7155V35.7077V35.6999V35.692V35.6842V35.6764V35.6686V35.6608V35.653V35.6452V35.6374V35.6295V35.6217V35.6139V35.6061V35.5983V35.5905V35.5827V35.5749V35.567V35.5592V35.5514V35.5436V35.5358V35.528V35.5202V35.5124V35.5045V35.4967V35.4889V35.4811V35.4733V35.4655V35.4577V35.4499V35.442V35.4342V35.4264V35.4186V35.4108V35.403V35.3952V35.3874V35.3795V35.3717V35.3639V35.3561V35.3483V35.3405V35.3327V35.3249V35.317V35.3092V35.3014V35.2936V35.2858V35.278V35.2702V35.2624V35.2545V35.2467V35.2389V35.2311V35.2233V35.2155V35.2077V35.1999V35.192V35.1842V35.1764V35.1686V35.1608V35.153V35.1452V35.1374V35.1295V35.1217V35.1139V35.1061V35.0983V35.0905V35.0827V35.0749V35.067V35.0592V35.0514V35.0436V35.0358V35.028V35.0202V35.0124V35.0045V34.9967V34.9889V34.9811V34.9733V34.9655V34.9577V34.9499V34.942V34.9342V34.9264V34.9186V34.9108V34.903V34.8952V34.8874V34.8795V34.8717V34.8639V34.8561V34.8483V34.8405V34.8327V34.8249V34.817V34.8092V34.8014V34.7936V34.7858V34.778V34.7702V34.7624V34.7545V34.7467V34.7389V34.7311V34.7233V34.7155V34.7077V34.6999V34.692V34.6842V34.6764V34.6686V34.6608V34.653V34.6452V34.6374V34.6295V34.6217V34.6139V34.6061V34.5983V34.5905V34.5827V34.5749V34.567V34.5592V34.5514V34.5436V34.5358V34.528V34.5202V34.5124V34.5045V34.4967V34.4889V34.4811V34.4733V34.4655V34.4577V34.4499V34.442V34.4342V34.4264V34.4186V34.4108V34.403V34.3952V34.3874V34.3795V34.3717V34.3639V34.3561V34.3483V34.3405V34.3327V34.3249V34.317V34.3092V34.3014V34.2936V34.2858V34.278V34.2702V34.2624V34.2545V34.2467V34.2389V34.2311V34.2233V34.2155V34.2077V34.1999V34.192V34.1842V34.1764V34.1686V34.1608V34.153V34.1452V34.1374V34.1295V34.1217V34.1139V34.1061V34.0983V34.0905V34.0827V34.0749V34.067V34.0592V34.0514V34.0436V34.0358V34.028V34.0202V34.0124V34.0045V33.9967V33.9889V33.9811V33.9733V33.9655V33.9577V33.9499V33.942V33.9342V33.9264V33.9186V33.9108V33.903V33.8952V33.8874V33.8795V33.8717V33.8639V33.8561V33.8483V33.8405V33.8327V33.8249V33.817V33.8092V33.8014V33.7936V33.7858V33.778V33.7702V33.7624V33.7545V33.7467V33.7389V33.7311V33.7233V33.7155V33.7077V33.6999V33.692V33.6842V33.6764V33.6686V33.6608V33.653V33.6452V33.6374V33.6295V33.6217V33.6139V33.6061V33.5983V33.5905V33.5827V33.5749V33.567V33.5592V33.5514V33.5436V33.5358V33.528V33.5202V33.5124V33.5045V33.4967V33.4889V33.4811V33.4733V33.4655V33.4577V33.4499V32.9199V32.8932L64.5836 32.8667C64.5276 32.3433 64.5051 31.8168 64.5163 31.2905L64.5164 31.2905V31.2799V31.2792V31.2785V31.2778V31.277V31.2763V31.2756V31.2749V31.2742V31.2735V31.2728V31.2721V31.2714V31.2707V31.27V31.2693V31.2686V31.2679V31.2672V31.2665V31.2658V31.2651V31.2644V31.2637V31.263V31.2623V31.2616V31.2609V31.2602V31.2595V31.2588V31.2581V31.2574V31.2567V31.256V31.2553V31.2545V31.2538V31.2531V31.2524V31.2517V31.251V31.2503V31.2496V31.2489V31.2482V31.2475V31.2468V31.2461V31.2454V31.2447V31.244V31.2433V31.2426V31.2419V31.2412V31.2405V31.2398V31.2391V31.2384V31.2377V31.237V31.2363V31.2356V31.2349V31.2342V31.2335V31.2328V31.232V31.2313V31.2306V31.2299V31.2292V31.2285V31.2278V31.2271V31.2264V31.2257V31.225V31.2243V31.2236V31.2229V31.2222V31.2215V31.2208V31.2201V31.2194V31.2187V31.218V31.2173V31.2166V31.2159V31.2152V31.2145V31.2138V31.2131V31.2124V31.2117V31.211V31.2103V31.2095V31.2088V31.2081V31.2074V31.2067V31.206V31.2053V31.2046V31.2039V31.2032V31.2025V31.2018V31.2011V31.2004V31.1997V31.199V31.1983V31.1976V31.1969V31.1962V31.1955V31.1948V31.1941V31.1934V31.1927V31.192V31.1913V31.1906V31.1899V31.1892V31.1885V31.1878V31.187V31.1863V31.1856V31.1849V31.1842V31.1835V31.1828V31.1821V31.1814V31.1807V31.18V31.1793V31.1786V31.1779V31.1772V31.1765V31.1758V31.1751V31.1744V31.1737V31.173V31.1723V31.1716V31.1709V31.1702V31.1695V31.1688V31.1681V31.1674V31.1667V31.166V31.1653V31.1645V31.1638V31.1631V31.1624V31.1617V31.161V31.1603V31.1596V31.1589V31.1582V31.1575V31.1568V31.1561V31.1554V31.1547V31.154V31.1533V31.1526V31.1519V31.1512V31.1505V31.1498V31.1491V31.1484V31.1477V31.147V31.1463V31.1456V31.1449V31.1442V31.1435V31.1428V31.142V31.1413V31.1406V31.1399V31.1392V31.1385V31.1378V31.1371V31.1364V31.1357V31.135V31.1343V31.1336V31.1329V31.1322V31.1315V31.1308V31.1301V31.1294V31.1287V31.128V31.1273V31.1266V31.1259V31.1252V31.1245V31.1238V31.1231V31.1224V31.1217V31.121V31.1203V31.1195V31.1188V31.1181V31.1174V31.1167V31.116V31.1153V31.1146V31.1139V31.1132V31.1125V31.1118V31.1111V31.1104V31.1097V31.109V31.1083V31.1076V31.1069V31.1062V31.1055V31.1048V31.1041V31.1034V31.1027V31.102V31.1013V31.1006V31.0999V31.0992V31.0985V31.0978V31.097V31.0963V31.0956V31.0949V31.0942V31.0935V31.0928V31.0921V31.0914V31.0907V31.09V31.0893V31.0886V31.0879V31.0872V31.0865V31.0858V31.0851V31.0844V31.0837V31.083V31.0823V31.0816V31.0809V31.0802V31.0795V31.0788V31.0781V31.0774V31.0767V31.076V31.0753V31.0745V31.0738V31.0731V31.0724V31.0717V31.071V31.0703V31.0696V31.0689V31.0682V31.0675V31.0668V31.0661V31.0654V31.0647V31.064V31.0633V31.0626V31.0619V31.0612V31.0605V31.0598V31.0591V31.0584V31.0577V31.057V31.0563V31.0556V31.0549V31.0542V31.0535V31.0528V31.052V31.0513V31.0506V31.0499V31.0492V31.0485V31.0478V31.0471V31.0464V31.0457V31.045V31.0443V31.0436V31.0429V31.0422V31.0415V31.0408V31.0401V31.0394V31.0387V31.038V31.0373V31.0366V31.0359V31.0352V31.0345V31.0338V31.0331V31.0324V31.0317V31.031V31.0303V31.0295V31.0288V31.0281V31.0274V31.0267V31.026V31.0253V31.0246V31.0239V31.0232V31.0225V31.0218V31.0211V31.0204V31.0197V31.019V31.0183V31.0176V31.0169V31.0162V31.0155V31.0148V31.0141V31.0134V31.0127V31.012V31.0113V31.0106V31.0099V31.0092V31.0085V31.0078V31.007V31.0063V31.0056V31.0049V31.0042V31.0035V31.0028V31.0021V31.0014V31.0007V31V30.9993V30.9986V30.9979V30.9972V30.9965V30.9958V30.9951V30.9944V30.9937V30.993V30.9923V30.9916V30.9909V30.9902V30.9895V30.9888V30.9881V30.9874V30.9867V30.986V30.9853V30.9845V30.9838V30.9831V30.9824V30.9817V30.981V30.9803V30.9796V30.9789V30.9782V30.9775V30.9768V30.9761V30.9754V30.9747V30.974V30.9733V30.9726V30.9719V30.9712V30.9705V30.9698V30.9691V30.9684V30.9677V30.967V30.9663V30.9656V30.9649V30.9642V30.9635V30.9628V30.962V30.9613V30.9606V30.9599V30.9592V30.9585V30.9578V30.9571V30.9564V30.9557V30.955V30.9543V30.9536V30.9529V30.9522V30.9515V30.9508V30.9501V30.9494V30.9487V30.948V30.9473V30.9466V30.9459V30.9452V30.9445V30.9438V30.9431V30.9424V30.9417V30.941V30.9403V30.9395V30.9388V30.9381V30.9374V30.9367V30.936V30.9353V30.9346V30.9339V30.9332V30.9325V30.9318V30.9311V30.9304V30.9297V30.929V30.9283V30.9276V30.9269V30.9262V30.9255V30.9248V30.9241V30.9234V30.9227V30.922V30.9213V30.9206V30.9199L64.5164 30.9062C64.5164 30.4125 64.5164 29.9025 64.4454 29.3589C64.4406 29.1564 64.4801 28.9552 64.5613 28.7694C64.6454 28.5771 64.7719 28.4063 64.9314 28.2698L65.0072 28.205L65.0523 28.116C65.1231 27.9764 65.2055 27.8429 65.2985 27.717L65.3034 27.7104L65.308 27.7037C65.6406 27.2214 66.0889 26.8303 66.6118 26.5662L66.6123 26.5659C66.9548 26.3925 67.3107 26.2467 67.6765 26.13C67.941 26.0599 68.2092 26.0047 68.4799 25.9644L68.48 25.9645L68.4892 25.963C69.2284 25.8389 69.9755 25.7676 70.7248 25.7498L72.7489 25.7299H72.7498H72.7533H72.7567H72.7601H72.7636H72.767H72.7705H72.7739H72.7773H72.7808H72.7842H72.7877H72.7911H72.7945H72.798H72.8014H72.8048H72.8083H72.8117H72.8152H72.8186H72.822H72.8255H72.8289H72.8324H72.8358H72.8392H72.8427H72.8461H72.8496H72.853H72.8564H72.8599H72.8633H72.8668H72.8702H72.8736H72.8771H72.8805H72.884H72.8874H72.8908H72.8943H72.8977H72.9012H72.9046H72.908H72.9115H72.9149H72.9184H72.9218H72.9253H72.9287H72.9321H72.9356H72.939H72.9425H72.9459H72.9493H72.9528H72.9562H72.9597H72.9631H72.9666H72.97H72.9734H72.9769H72.9803H72.9838H72.9872H72.9907H72.9941H72.9975H73.001H73.0044H73.0079H73.0113H73.0148H73.0182H73.0216H73.0251H73.0285H73.032H73.0354H73.0389H73.0423H73.0457H73.0492H73.0526H73.0561H73.0595H73.063H73.0664H73.0699H73.0733H73.0767H73.0802H73.0836H73.0871H73.0905H73.094H73.0974H73.1009H73.1043H73.1078H73.1112H73.1146H73.1181H73.1215H73.125H73.1284H73.1319H73.1353H73.1388H73.1422H73.1457H73.1491H73.1526H73.156H73.1594H73.1629H73.1663H73.1698H73.1732H73.1767H73.1801H73.1836H73.187H73.1905H73.1939H73.1974H73.2008H73.2043H73.2077H73.2112H73.2146H73.2181H73.2215H73.2249H73.2284H73.2318H73.2353H73.2387H73.2422H73.2456H73.2491H73.2525H73.256H73.2594H73.2629H73.2663H73.2698H73.2732H73.2767H73.2801H73.2836H73.287H73.2905H73.2939H73.2974H73.3008H73.3043H73.3077H73.3112H73.3146H73.3181H73.3215H73.325H73.3284H73.3319H73.3353H73.3388H73.3422H73.3457H73.3491H73.3526H73.356H73.3595H73.3629H73.3664H73.3698H73.3733H73.3767H73.3802H73.3836H73.3871H73.3905H73.394H73.3974H73.4009H73.4044H73.4078H73.4113H73.4147H73.4182H73.4216H73.4251H73.4285H73.432H73.4354H73.4389H73.4423H73.4458H73.4492H73.4527H73.4561H73.4596H73.463H73.4665H73.47H73.4734H73.4769H73.4803H73.4838H73.4872H73.4907H73.4941H73.4976H73.501H73.5045H73.508H73.5114H73.5149H73.5183H73.5218H73.5252H73.5287H73.5321H73.5356H73.539H73.5425H73.546H73.5494H73.5529H73.5563H73.5598H73.5632H73.5667H73.5701H73.5736H73.5771H73.5805H73.584H73.5874H73.5909H73.5943H73.5978H73.6012H73.6047H73.6082H73.6116H73.6151H73.6185H73.622H73.6254H73.6289H73.6324H73.6358H73.6393H73.6427H73.6462H73.6496H73.6531H73.6566H73.66H73.6635H73.6669H73.6704H73.6738H73.6773H73.6808H73.6842H73.6877H73.6911H73.6946H73.6981H73.7015H73.705H73.7084H73.7119H73.7154H73.7188H73.7223H73.7257H73.7292H73.7326H73.7361H73.7396H73.743H73.7465H73.7499H73.7534H73.7569H73.7603H73.7638H73.7672H73.7707H73.7742H73.7776H73.7811H73.7845H73.788H73.7915H73.7949H73.7984H73.8018H73.8053H73.8088H73.8122H73.8157H73.8192H73.8226H73.8261H73.8295H73.833H73.8365H73.8399H73.8434H73.8468H73.8503H73.8538H73.8572H73.8607H73.8642H73.8676H73.8711H73.8745H73.878H73.8815H73.8849H73.8884H73.8919H73.8953H73.8988H73.9022H73.9057H73.9092H73.9126H73.9161H73.9196H73.923H73.9265H73.93H73.9334H73.9369H73.9403H73.9438H73.9473H73.9507H73.9542H73.9577H73.9611H73.9646H73.9681H73.9715H73.975H73.9785H73.9819H73.9854H73.9888H73.9923H73.9958H73.9992H74.0027H74.0062H74.0096H74.0131H74.0166H74.02H74.0235H74.027H74.0304H74.0339H74.0374H74.0408H74.0443H74.0478H74.0512H74.0547H74.0582H74.0616H74.0651H74.0686H74.072H74.0755H74.079H74.0824H74.0859H74.0894H74.0928H74.0963H74.0998H74.1032H74.1067H74.1102H74.1136H74.1171H74.1206H74.124H74.1275H74.131H74.1344H74.1379H74.1414H74.1448H74.1483H74.1518H74.1553H74.1587H74.1622H74.1657H74.1691H74.1726H74.1761H74.1795H74.183H74.1865H74.1899H74.1934H74.1969H74.2004H74.2038H74.2073H74.2108H74.2142H74.2177H74.2212H74.2246H74.2281H74.2316H74.2351H74.2385H74.242H74.2455H74.2489H74.2524H74.2559H74.2593H74.2628H74.2663H74.2698H74.2732H74.2767H74.2802H74.2836H74.2871H74.2906H74.2941H74.2975H74.301H74.3045H74.3079H74.3114H74.3149H74.3184H74.3218H74.3253H74.3288H74.3323H74.3357H74.3392H74.3427H74.3461H74.3496H74.3531H74.3566H74.36H74.3635H74.367H74.3705H74.3739H74.3774H74.3809H74.3843H74.3878H74.3913H74.3948H74.3982H74.4017H74.4052H74.4087H74.4121H74.4156H74.4191H74.4226H74.426H74.4295H74.433H74.4365H74.4399H74.4434H74.4469H74.4504H74.4538H74.4573H74.4608H74.4643H74.4677H74.4712H74.4747H74.4782H74.4816H74.4851H74.4886H74.4921H74.4955H74.499H74.5025H74.5039C75.9056 25.8003 77.2992 25.9839 78.6714 26.2787ZM69.1211 28.4829L69.1045 28.4848L69.0881 28.4877C68.8357 28.533 68.5867 28.5953 68.3427 28.6741L68.2899 28.6911L68.242 28.7194L68.022 28.8494L67.9676 28.8816L67.9228 28.9263L67.8529 28.9963L67.7064 29.1427V29.3499V29.3999V29.4156L67.7074 29.4313C67.7873 30.6992 67.8568 31.9615 67.8865 33.2316L67.8866 33.2349C67.9665 35.8982 68.0331 38.5815 68.0864 41.2848V41.2967C68.0864 43.8555 68.0864 46.444 68.441 49.0278L68.4414 49.0302C68.5251 49.6193 68.6572 50.2005 68.8364 50.7679V51.0555L69.0954 51.198L69.2954 51.308L69.336 51.3302L69.3799 51.3447C69.8737 51.5075 70.3788 51.6338 70.8911 51.7225L70.9052 51.725L70.9194 51.7266C72.1517 51.868 73.3913 51.9586 74.6253 52.0289C75.9022 52.1153 77.1834 52.1152 78.4602 52.0287L78.4857 52.027L78.5108 52.0227C78.973 51.9435 79.4279 51.8263 79.8708 51.6721L79.916 51.6563L79.9575 51.6323L80.2675 51.4523L80.3168 51.4236L80.3584 51.3846C80.5035 51.2486 80.6405 51.1042 80.7687 50.9522L80.7882 50.929L80.8048 50.9036C80.9658 50.6575 81.1103 50.4011 81.2373 50.1359L81.2483 50.113L81.2569 50.089C81.3645 49.7897 81.4511 49.4832 81.5159 49.1718L81.5221 49.1421L81.5246 49.112C81.7356 46.6174 81.8163 44.1135 81.7665 41.6104C81.825 38.9713 81.7477 36.3308 81.5348 33.6995L81.5337 33.6866L81.532 33.6737C81.4055 32.7265 81.187 31.794 80.8799 30.8891L80.8634 30.8406L80.8374 30.7964L80.7374 30.6264L80.709 30.578L80.6705 30.5372L80.5105 30.3672L80.4669 30.3208L80.4131 30.2869C80.0732 30.0726 79.7193 29.8816 79.3538 29.7149L79.3381 29.7078L79.322 29.7017C79.2941 29.6913 79.266 29.6806 79.2375 29.6699C79.0298 29.5916 78.8038 29.5063 78.5612 29.4384C78.3116 29.3685 77.7961 29.2269 77.406 29.1343C76.6713 28.9467 75.9267 28.7999 75.1758 28.6947L75.1758 28.6946L75.166 28.6934C74.1627 28.573 73.2216 28.4717 72.2373 28.4108L72.2204 28.4098L72.2035 28.4099L70.4897 28.4198C70.0326 28.4113 69.5755 28.4324 69.1211 28.4829Z" fill="#03A9F4" stroke="black"/>
<mask id="path-3-inside-1_7_1714" fill="white">
<path d="M102.236 92.9199C103.526 92.9199 104.826 92.9199 106.116 93.0099C106.766 93.0099 107.406 93.0999 108.056 93.0999C108.706 93.0999 109.256 93.0999 109.856 93.0999C111.29 93.1374 112.716 93.3115 114.116 93.6199C115.356 93.8999 116.606 94.1399 117.846 94.4399C119.413 94.687 120.911 95.2556 122.246 96.1099C122.689 96.4197 123.098 96.775 123.466 97.1699C123.867 97.5886 124.204 98.0637 124.466 98.5799C124.827 99.3008 125.118 100.054 125.336 100.83C125.676 102.04 125.976 103.26 126.286 104.48C126.936 106.98 127.346 109.48 127.746 112.08C127.956 113.39 128.176 114.7 128.356 116.02C128.576 117.59 128.716 119.17 128.806 120.76C128.946 123.38 129.066 126 128.986 128.62C128.986 130.08 128.876 131.54 128.796 133C128.707 134.548 128.536 136.09 128.286 137.62C128.139 138.504 127.877 139.364 127.506 140.18C127.207 140.8 126.827 141.379 126.376 141.9C125.863 142.501 125.255 143.014 124.576 143.42C123.989 143.77 123.378 144.078 122.746 144.34H122.676L122.346 144.48L122.206 144.54C121.596 144.79 120.976 145.04 120.346 145.26C119.716 145.48 119.096 145.66 118.466 145.84L117.286 146.17C116.47 146.368 115.642 146.512 114.806 146.6C114.186 146.68 113.546 146.74 112.916 146.79C110.157 146.982 107.39 147.028 104.626 146.93C101.742 146.885 98.8654 146.604 96.0264 146.09C94.7488 145.852 93.4866 145.538 92.2464 145.15C91.4471 144.901 90.6625 144.607 89.8964 144.27C89.3154 144.031 88.7675 143.719 88.2664 143.34C87.6141 142.893 87.0595 142.318 86.6364 141.65C86.3464 141.152 86.134 140.612 86.0064 140.05C85.8518 139.241 85.7515 138.422 85.7064 137.6C85.6264 136.33 85.5964 135.06 85.6364 133.79C85.8264 128.27 85.9164 122.74 86.0264 117.22C86.0964 113.8 86.1664 110.38 86.1964 106.96C86.1054 106.858 86.025 106.748 85.9564 106.63C85.7775 106.327 85.6841 105.982 85.6864 105.63C85.6114 104.338 85.6114 103.042 85.6864 101.75C85.6551 100.235 85.9626 98.7313 86.5864 97.3499C87.0317 96.4475 87.7256 95.6912 88.5864 95.1699C89.2222 94.8342 89.8929 94.5693 90.5864 94.3799C91.1764 94.2099 91.7664 93.9999 92.3764 93.8699C92.9864 93.7399 93.5464 93.5999 94.1364 93.5099C94.7264 93.4199 95.3164 93.3199 95.9064 93.2199C96.6764 93.0999 97.4464 93.0199 98.2264 92.9499C99.4864 92.9199 100.876 92.9199 102.236 92.9199ZM94.8164 97.5999L93.2964 97.8199L93.6264 97.7699C93.0364 97.8799 92.4564 98.0199 91.8764 98.1799C91.4764 98.2899 91.0764 98.3899 90.6864 98.5299L90.3264 98.7199L90.2264 98.8299C90.1064 99.0099 89.9964 99.1799 89.8864 99.3699C89.7764 99.5599 89.7964 99.7299 89.7564 99.9199C89.6764 100.76 89.6764 101.62 89.6664 102.47C89.6564 103.32 89.6664 103.89 89.6664 104.6V105.22C89.7264 110.68 89.8464 116.15 89.9664 121.61C90.0264 124.44 90.0764 127.26 90.1464 130.08C90.2064 132.54 90.2764 135 90.5664 137.44C90.6344 137.995 90.7481 138.544 90.9064 139.08V139.17L91.1664 139.42C91.5304 139.661 91.9114 139.875 92.3064 140.06C93.3359 140.455 94.3877 140.789 95.4564 141.06C96.0564 141.21 96.6564 141.36 97.2664 141.47C97.8764 141.58 98.6764 141.71 99.3864 141.81C102.044 142.09 104.715 142.221 107.386 142.2C108.686 142.2 109.976 142.2 111.266 142.2C112.556 142.2 113.636 142.05 114.816 141.91C115.975 141.689 117.117 141.391 118.236 141.02C118.976 140.8 119.696 140.53 120.416 140.24L120.746 140.09C121.259 139.858 121.75 139.584 122.216 139.27L122.606 138.9C122.716 138.73 122.816 138.55 122.916 138.37C123.062 137.929 123.172 137.478 123.246 137.02C123.375 135.774 123.438 134.522 123.436 133.27C123.436 131.81 123.436 130.34 123.436 128.88C123.436 127.42 123.376 126.15 123.306 124.79C123.166 122.28 123.046 119.79 122.736 117.29C122.496 115.55 122.216 113.82 121.986 112.09C121.756 110.36 121.426 108.38 120.986 106.53C120.786 105.59 120.586 104.64 120.356 103.7C120.126 102.76 119.966 102.09 119.696 101.31C119.596 101.13 119.496 100.95 119.386 100.78C119.25 100.62 119.103 100.47 118.946 100.33C118.789 100.227 118.625 100.133 118.456 100.05C117.238 99.6072 115.996 99.2332 114.736 98.9299C114.056 98.7599 113.376 98.5799 112.736 98.3899C112.187 98.2366 111.63 98.1164 111.066 98.0299C110.546 97.9699 110.066 97.9299 109.506 97.8899C108.946 97.8499 108.356 97.8899 107.776 97.8099L105.926 97.6699C104.566 97.5799 103.196 97.4999 101.826 97.4399C100.456 97.3799 99.1964 97.3099 97.8864 97.3599C96.8764 97.3499 95.8464 97.4699 94.8164 97.5999Z"/>
</mask>
<path d="M102.236 92.9199C103.526 92.9199 104.826 92.9199 106.116 93.0099C106.766 93.0099 107.406 93.0999 108.056 93.0999C108.706 93.0999 109.256 93.0999 109.856 93.0999C111.29 93.1374 112.716 93.3115 114.116 93.6199C115.356 93.8999 116.606 94.1399 117.846 94.4399C119.413 94.687 120.911 95.2556 122.246 96.1099C122.689 96.4197 123.098 96.775 123.466 97.1699C123.867 97.5886 124.204 98.0637 124.466 98.5799C124.827 99.3008 125.118 100.054 125.336 100.83C125.676 102.04 125.976 103.26 126.286 104.48C126.936 106.98 127.346 109.48 127.746 112.08C127.956 113.39 128.176 114.7 128.356 116.02C128.576 117.59 128.716 119.17 128.806 120.76C128.946 123.38 129.066 126 128.986 128.62C128.986 130.08 128.876 131.54 128.796 133C128.707 134.548 128.536 136.09 128.286 137.62C128.139 138.504 127.877 139.364 127.506 140.18C127.207 140.8 126.827 141.379 126.376 141.9C125.863 142.501 125.255 143.014 124.576 143.42C123.989 143.77 123.378 144.078 122.746 144.34H122.676L122.346 144.48L122.206 144.54C121.596 144.79 120.976 145.04 120.346 145.26C119.716 145.48 119.096 145.66 118.466 145.84L117.286 146.17C116.47 146.368 115.642 146.512 114.806 146.6C114.186 146.68 113.546 146.74 112.916 146.79C110.157 146.982 107.39 147.028 104.626 146.93C101.742 146.885 98.8654 146.604 96.0264 146.09C94.7488 145.852 93.4866 145.538 92.2464 145.15C91.4471 144.901 90.6625 144.607 89.8964 144.27C89.3154 144.031 88.7675 143.719 88.2664 143.34C87.6141 142.893 87.0595 142.318 86.6364 141.65C86.3464 141.152 86.134 140.612 86.0064 140.05C85.8518 139.241 85.7515 138.422 85.7064 137.6C85.6264 136.33 85.5964 135.06 85.6364 133.79C85.8264 128.27 85.9164 122.74 86.0264 117.22C86.0964 113.8 86.1664 110.38 86.1964 106.96C86.1054 106.858 86.025 106.748 85.9564 106.63C85.7775 106.327 85.6841 105.982 85.6864 105.63C85.6114 104.338 85.6114 103.042 85.6864 101.75C85.6551 100.235 85.9626 98.7313 86.5864 97.3499C87.0317 96.4475 87.7256 95.6912 88.5864 95.1699C89.2222 94.8342 89.8929 94.5693 90.5864 94.3799C91.1764 94.2099 91.7664 93.9999 92.3764 93.8699C92.9864 93.7399 93.5464 93.5999 94.1364 93.5099C94.7264 93.4199 95.3164 93.3199 95.9064 93.2199C96.6764 93.0999 97.4464 93.0199 98.2264 92.9499C99.4864 92.9199 100.876 92.9199 102.236 92.9199ZM94.8164 97.5999L93.2964 97.8199L93.6264 97.7699C93.0364 97.8799 92.4564 98.0199 91.8764 98.1799C91.4764 98.2899 91.0764 98.3899 90.6864 98.5299L90.3264 98.7199L90.2264 98.8299C90.1064 99.0099 89.9964 99.1799 89.8864 99.3699C89.7764 99.5599 89.7964 99.7299 89.7564 99.9199C89.6764 100.76 89.6764 101.62 89.6664 102.47C89.6564 103.32 89.6664 103.89 89.6664 104.6V105.22C89.7264 110.68 89.8464 116.15 89.9664 121.61C90.0264 124.44 90.0764 127.26 90.1464 130.08C90.2064 132.54 90.2764 135 90.5664 137.44C90.6344 137.995 90.7481 138.544 90.9064 139.08V139.17L91.1664 139.42C91.5304 139.661 91.9114 139.875 92.3064 140.06C93.3359 140.455 94.3877 140.789 95.4564 141.06C96.0564 141.21 96.6564 141.36 97.2664 141.47C97.8764 141.58 98.6764 141.71 99.3864 141.81C102.044 142.09 104.715 142.221 107.386 142.2C108.686 142.2 109.976 142.2 111.266 142.2C112.556 142.2 113.636 142.05 114.816 141.91C115.975 141.689 117.117 141.391 118.236 141.02C118.976 140.8 119.696 140.53 120.416 140.24L120.746 140.09C121.259 139.858 121.75 139.584 122.216 139.27L122.606 138.9C122.716 138.73 122.816 138.55 122.916 138.37C123.062 137.929 123.172 137.478 123.246 137.02C123.375 135.774 123.438 134.522 123.436 133.27C123.436 131.81 123.436 130.34 123.436 128.88C123.436 127.42 123.376 126.15 123.306 124.79C123.166 122.28 123.046 119.79 122.736 117.29C122.496 115.55 122.216 113.82 121.986 112.09C121.756 110.36 121.426 108.38 120.986 106.53C120.786 105.59 120.586 104.64 120.356 103.7C120.126 102.76 119.966 102.09 119.696 101.31C119.596 101.13 119.496 100.95 119.386 100.78C119.25 100.62 119.103 100.47 118.946 100.33C118.789 100.227 118.625 100.133 118.456 100.05C117.238 99.6072 115.996 99.2332 114.736 98.9299C114.056 98.7599 113.376 98.5799 112.736 98.3899C112.187 98.2366 111.63 98.1164 111.066 98.0299C110.546 97.9699 110.066 97.9299 109.506 97.8899C108.946 97.8499 108.356 97.8899 107.776 97.8099L105.926 97.6699C104.566 97.5799 103.196 97.4999 101.826 97.4399C100.456 97.3799 99.1964 97.3099 97.8864 97.3599C96.8764 97.3499 95.8464 97.4699 94.8164 97.5999Z" fill="#99DDC6" stroke="black" stroke-width="2" mask="url(#path-3-inside-1_7_1714)"/>
<path d="M108.702 40.3528L108.702 40.3528C110.609 40.1457 112.54 40.0595 114.46 39.9738C115.245 39.9388 116.029 39.9038 116.809 39.8606L116.823 39.8599H116.836H117.456H117.472L117.488 39.8609C118.744 39.9406 119.94 40.0005 121.249 40.0604C122.192 40.1036 123.139 40.1727 124.077 40.2413C124.45 40.2685 124.821 40.2957 125.191 40.321L125.196 40.3214L125.196 40.3215C125.75 40.366 126.304 40.3982 126.865 40.4307L126.868 40.4309C127.426 40.4632 127.99 40.496 128.555 40.5414C128.949 40.5713 129.358 40.592 129.782 40.6134C129.845 40.6166 129.908 40.6198 129.972 40.623C130.462 40.648 130.971 40.6759 131.481 40.7219L131.503 40.7238L131.524 40.7277C132.178 40.8443 132.819 41.0195 133.441 41.2514L133.466 41.2607L133.49 41.2726C133.801 41.4283 134.104 41.6009 134.397 41.7896L134.442 41.8185L134.48 41.8563L134.57 41.9464L134.609 41.985L134.638 42.031C134.789 42.2683 134.924 42.5159 135.041 42.772L135.051 42.7929L135.058 42.8146C135.362 43.6832 135.621 44.5671 135.832 45.4628C136.048 46.341 136.211 47.2311 136.323 48.1284L136.323 48.1347L136.323 48.1347C136.426 49.0559 136.466 49.9434 136.476 50.8946C136.486 51.84 136.477 52.817 136.405 53.7386C136.37 54.1849 136.323 54.647 136.278 55.0933L136.275 55.1252C136.229 55.584 136.184 56.0245 136.155 56.4264C136.095 57.2499 136.024 58.0789 135.923 58.9104L135.921 58.9231L135.921 58.9231C135.728 60.2273 135.431 61.5139 135.033 62.7708L135.025 62.7976L135.013 62.8233C134.798 63.3064 134.544 63.7714 134.255 64.2138L134.23 64.2515L134.199 64.2843L134.009 64.4843L133.958 64.5375L133.894 64.574L133.474 64.814L133.431 64.8386L133.385 64.8542C132.917 65.0102 132.436 65.1241 131.948 65.1947L131.941 65.1958L131.933 65.1966C129.452 65.4808 126.955 65.5988 124.458 65.5498C124.249 65.5467 124.039 65.5437 123.83 65.5407C121.322 65.5045 118.802 65.4682 116.29 65.3292M108.702 40.3528L112.206 64.4699M108.702 40.3528L108.698 40.3532C108.486 40.378 108.275 40.4144 108.066 40.4621C107.601 40.5655 107.144 40.7028 106.698 40.8727L106.69 40.876L106.681 40.8796C105.996 41.1704 105.335 41.5179 104.708 41.9183L104.707 41.9183L104.704 41.9206L104.504 42.0507L104.467 42.0749L104.434 42.1053C104.283 42.2474 104.14 42.398 104.005 42.5563L103.989 42.5757L103.974 42.5967C103.779 42.8807 103.604 43.1778 103.449 43.4859L103.432 43.5213L103.42 43.559C103.146 44.4235 102.94 45.3078 102.802 46.204L102.801 46.2112L102.8 46.2184C102.649 47.434 102.526 48.6538 102.404 49.8669L102.404 49.8697C102.281 51.0857 102.159 52.295 102.01 53.4984L102.01 53.501C101.849 54.8595 101.728 56.2194 101.657 57.5905C101.586 58.6668 101.586 59.7466 101.657 60.8229L101.66 60.8656L101.67 60.9072L101.672 60.9143C101.741 61.1998 101.814 61.5028 101.909 61.8081L101.923 61.853L101.945 61.8945C102.053 62.0987 102.172 62.2972 102.302 62.4891L102.324 62.522L102.351 62.551L102.491 62.701L102.535 62.7482L102.589 62.7826C102.893 62.9743 103.208 63.1476 103.532 63.3016L103.548 63.3092L103.564 63.3156C104.381 63.6344 105.219 63.8954 106.072 64.0965M108.702 40.3528L103.746 62.8499M116.29 65.3292C114.901 65.2587 113.528 65.1478 112.142 64.9657M116.29 65.3292C116.289 65.3292 116.289 65.3291 116.289 65.3291L116.316 64.8299L116.291 65.3292C116.291 65.3292 116.29 65.3292 116.29 65.3292ZM112.142 64.9657C112.142 64.9657 112.142 64.9657 112.141 64.9656L112.206 64.4699M112.142 64.9657C112.143 64.9658 112.143 64.9658 112.143 64.9659L112.206 64.4699M112.142 64.9657C111.596 64.8963 111.05 64.8342 110.5 64.7717L110.498 64.7715C109.949 64.7091 109.397 64.6463 108.843 64.5759L108.83 64.5742L108.83 64.5741C108.666 64.5489 108.501 64.5241 108.334 64.4991C107.589 64.388 106.819 64.2729 106.072 64.0965M112.206 64.4699C111.656 64.3999 111.106 64.3374 110.556 64.2749C110.006 64.2124 109.456 64.1499 108.906 64.0799C108.738 64.0539 108.569 64.0287 108.4 64.0034C107.656 63.8923 106.911 63.781 106.186 63.6099M106.072 64.0965L106.186 63.6099M106.072 64.0965C106.072 64.0965 106.072 64.0965 106.072 64.0965L106.186 63.6099M106.186 63.6099C105.356 63.4141 104.541 63.1601 103.746 62.8499M103.746 62.8499C103.44 62.7045 103.143 62.5409 102.856 62.3599L103.746 62.8499ZM129.283 36.8688L129.291 36.8693L129.299 36.8696C130.717 36.9177 132.123 37.1386 133.487 37.5272C134.195 37.7688 134.88 38.0704 135.537 38.4287L135.544 38.4324L135.55 38.4359C136.276 38.8035 136.923 39.309 137.456 39.9242C137.908 40.4631 138.29 41.058 138.59 41.6943C138.894 42.4106 139.167 43.1224 139.4 43.8604L139.4 43.8604L139.401 43.8663C139.79 45.0471 140.075 46.2598 140.251 47.4903C140.463 48.9792 140.582 50.4799 140.606 51.9836C140.605 53.2122 140.529 54.4397 140.38 55.6592L140.38 55.6592L140.379 55.6701C140.348 55.9747 140.32 56.2772 140.291 56.5782C140.178 57.7771 140.066 58.9503 139.854 60.1207L139.854 60.1207L139.853 60.1277C139.64 61.4048 139.313 62.6604 138.876 63.8793C138.622 64.5719 138.303 65.239 137.924 65.872C137.743 66.1412 137.549 66.401 137.342 66.6502L137.328 66.6671L137.315 66.6853C137.208 66.84 137.087 66.9844 136.953 67.1166C136.563 67.4714 136.133 67.7803 135.673 68.0375C134.29 68.7249 132.778 69.1143 131.235 69.1803L131.218 69.1811L131.2 69.183C129.88 69.3319 128.559 69.4412 127.227 69.5208C126.05 69.591 124.88 69.5989 123.697 69.6068C123.549 69.6078 123.401 69.6088 123.253 69.6099C122.37 69.6165 121.494 69.6143 120.608 69.6121C120.161 69.611 119.711 69.6099 119.256 69.6099C117.904 69.6099 116.458 69.6097 115.065 69.5307C114.123 69.4773 113.307 69.4152 112.486 69.3528C112.081 69.322 111.675 69.2911 111.252 69.2611C109.99 69.1717 108.618 69.0425 107.276 68.8835C106.363 68.7731 105.472 68.6652 104.594 68.4896L104.591 68.489C103.934 68.3618 103.284 68.1993 102.644 68.002L102.626 67.9967L102.609 67.9926C100.975 67.6163 99.4869 66.7719 98.326 65.5629C98.0008 65.1871 97.7063 64.7858 97.4453 64.3629C97.1885 63.9208 96.972 63.4565 96.7986 62.9755C96.5275 62.1684 96.3515 61.3324 96.2743 60.4845L96.2743 60.4845L96.2739 60.4803C96.1522 59.2597 96.1522 58.03 96.2739 56.8095L96.2741 56.8095L96.2751 56.7955C96.3738 55.4128 96.5519 54.0265 96.7418 52.6376L96.7419 52.6365L97.1319 49.7365L97.132 49.7365L97.133 49.7281C97.1497 49.5853 97.1664 49.4427 97.183 49.3004C97.3555 47.8236 97.5253 46.3698 97.769 44.9251C97.8784 44.3075 98.027 43.6975 98.2137 43.0987L98.2137 43.0987L98.2146 43.0958C98.3885 42.5258 98.597 41.9671 98.839 41.4226C99.1026 40.8917 99.4308 40.3954 99.8162 39.945L99.8224 39.9378L99.8282 39.9304C100.277 39.364 100.801 38.862 101.386 38.4384L101.555 38.4152L101.662 38.4004L101.753 38.3426L101.936 38.2271C102.47 37.915 103.028 37.6474 103.605 37.427L103.618 37.4218L103.632 37.4158C105.041 36.7812 106.569 36.4553 108.115 36.4599L108.244 36.4603L108.358 36.3977C108.571 36.2801 108.811 36.2189 109.054 36.2199H109.056H109.346H109.379L109.412 36.2156C110.089 36.1259 110.745 36.0478 111.377 36.0089L111.44 36.005L111.501 35.9855C111.792 35.891 112.056 35.8799 112.376 35.8799H113.376C114.581 35.8799 115.787 35.9536 116.995 36.0276C117.112 36.0347 117.229 36.0419 117.346 36.049C117.552 36.0614 117.759 36.0741 117.969 36.087C119.101 36.1563 120.282 36.2286 121.434 36.2794C122.103 36.3089 122.737 36.3606 123.369 36.4155C123.461 36.4234 123.552 36.4314 123.643 36.4394C124.183 36.4867 124.727 36.5343 125.285 36.5689C125.925 36.6086 126.581 36.6607 127.25 36.7145L127.353 36.7228C127.988 36.7738 128.634 36.8258 129.283 36.8688Z" fill="#4D4962" stroke="black"/>
<path d="M67.7479 92.7901L67.7469 92.8022L67.7466 92.8144C67.7134 93.8796 67.5496 94.9367 67.2586 95.9618C67.082 96.4862 66.8579 96.9934 66.5892 97.4772L66.5832 97.488L66.5777 97.4991C66.3121 98.0385 65.9395 98.5182 65.4826 98.9089C65.0866 99.2435 64.6458 99.5209 64.1729 99.7332C63.641 99.9686 63.097 100.176 62.5432 100.354L62.5408 100.355C61.6522 100.646 60.7404 100.86 59.8152 100.995C58.6944 101.152 57.565 101.24 56.4334 101.26C55.5052 101.255 54.5781 101.196 53.6567 101.084L53.6568 101.083L53.6448 101.082C53.4243 101.061 53.2053 101.041 52.9878 101.021C52.072 100.936 51.1805 100.854 50.2985 100.689L50.2985 100.688L50.2888 100.687C49.3284 100.526 48.3851 100.277 47.4709 99.9414C46.9491 99.744 46.447 99.4978 45.9715 99.206C45.8404 99.1223 45.7282 99.0347 45.5997 98.9343C45.535 98.8837 45.4661 98.8299 45.3886 98.7717C45.271 98.6813 45.159 98.5838 45.0533 98.4798C44.7849 98.1966 44.5512 97.8825 44.3573 97.5439C43.8427 96.5137 43.5493 95.3872 43.4958 94.2367L43.495 94.221L43.4933 94.2053C43.3844 93.215 43.305 92.2234 43.2454 91.23C43.1948 90.3868 43.1876 89.5441 43.1802 88.6864C43.179 88.543 43.1777 88.3992 43.1763 88.2549C43.1697 87.5915 43.1719 86.9308 43.1741 86.2662C43.1752 85.932 43.1763 85.5969 43.1763 85.2599C43.1763 84.2579 43.1764 83.1396 43.2258 82.0833C43.2584 81.3848 43.3076 80.7899 43.3578 80.183C43.384 79.8661 43.4105 79.5459 43.435 79.2059C43.5047 78.2405 43.5939 77.2211 43.7222 76.2344L43.7222 76.2344L43.723 76.2275C43.8034 75.5339 43.8812 74.8657 44.016 74.2108L44.016 74.2108L44.0167 74.2076C44.1141 73.7183 44.2367 73.2343 44.384 72.7576L44.3892 72.7408L44.3932 72.7238C44.6783 71.5043 45.3205 70.3975 46.2375 69.5448C46.5262 69.3025 46.8342 69.084 47.1584 68.8917C47.4886 68.7021 47.8345 68.5414 48.1925 68.4116C48.7992 68.204 49.4292 68.0719 50.0682 68.0182L50.0682 68.0183L50.0762 68.0175C50.9906 67.9258 51.912 67.9258 52.8265 68.0175L52.8351 68.0183L52.8437 68.0189C53.8933 68.0876 54.9271 68.2251 55.9863 68.375L55.9863 68.375L55.9907 68.3756L58.1807 68.6656L58.1807 68.6656L58.1853 68.6662C58.466 68.7007 58.7458 68.734 59.0245 68.7672C59.9666 68.8793 60.8975 68.9902 61.8193 69.1424C62.2818 69.2295 62.7392 69.3415 63.1896 69.478C63.6168 69.6107 64.0356 69.7692 64.4437 69.9526C64.8348 70.1446 65.2 70.3854 65.5306 70.6693L65.5374 70.6752L65.5445 70.6808C65.9843 71.0317 66.3736 71.4417 66.7012 71.899L66.8136 72.0769L66.8136 72.0769L66.8157 72.0803L66.8993 72.2103C67.1299 72.61 67.3312 73.0259 67.5017 73.4547L67.5056 73.4645L67.5099 73.4741C67.9821 74.5299 68.2263 75.6734 68.2263 76.83L68.2263 76.9605L68.2901 77.0743C68.3718 77.2201 68.4152 77.3843 68.4163 77.5514V77.77V77.8041L68.421 77.8379C68.4868 78.3177 68.5422 78.7691 68.5724 79.2578C68.4962 79.5628 68.4962 79.8414 68.4963 80.0613L68.4963 80.08V80.0814V80.0829V80.0843V80.0858V80.0873V80.0887V80.0902V80.0917V80.0931V80.0946V80.0961V80.0975V80.099V80.1004V80.1019V80.1034V80.1048V80.1063V80.1077V80.1092V80.1107V80.1121V80.1136V80.115V80.1165V80.118V80.1194V80.1209V80.1223V80.1238V80.1253V80.1267V80.1282V80.1296V80.1311V80.1325V80.134V80.1355V80.1369V80.1384V80.1398V80.1413V80.1427V80.1442V80.1457V80.1471V80.1486V80.15V80.1515V80.1529V80.1544V80.1558V80.1573V80.1587V80.1602V80.1617V80.1631V80.1646V80.166V80.1675V80.1689V80.1704V80.1718V80.1733V80.1747V80.1762V80.1776V80.1791V80.1805V80.182V80.1834V80.1849V80.1863V80.1878V80.1892V80.1907V80.1921V80.1936V80.195V80.1965V80.1979V80.1994V80.2008V80.2023V80.2037V80.2052V80.2066V80.2081V80.2095V80.211V80.2124V80.2139V80.2153V80.2168V80.2182V80.2197V80.2211V80.2226V80.224V80.2254V80.2269V80.2283V80.2298V80.2312V80.2327V80.2341V80.2356V80.237V80.2385V80.2399V80.2413V80.2428V80.2442V80.2457V80.2471V80.2486V80.25V80.2515V80.2529V80.2543V80.2558V80.2572V80.2587V80.2601V80.2616V80.263V80.2644V80.2659V80.2673V80.2688V80.2702V80.2717V80.2731V80.2745V80.276V80.2774V80.2789V80.2803V80.2818V80.2832V80.2846V80.2861V80.2875V80.289V80.2904V80.2918V80.2933V80.2947V80.2962V80.2976V80.299V80.3005V80.3019V80.3034V80.3048V80.3063V80.3077V80.3091V80.3106V80.312V80.3134V80.3149V80.3163V80.3178V80.3192V80.3206V80.3221V80.3235V80.325V80.3264V80.3278V80.3293V80.3307V80.3322V80.3336V80.335V80.3365V80.3379V80.3393V80.3408V80.3422V80.3437V80.3451V80.3465V80.348V80.3494V80.3509V80.3523V80.3537V80.3552V80.3566V80.358V80.3595V80.3609V80.3624V80.3638V80.3652V80.3667V80.3681V80.3695V80.371V80.3724V80.3738V80.3753V80.3767V80.3782V80.3796V80.381V80.3825V80.3839V80.3853V80.3868V80.3882V80.3896V80.3911V80.3925V80.394V80.3954V80.3968V80.3983V80.3997V80.4011V80.4026V80.404V80.4054V80.4069V80.4083V80.4098V80.4112V80.4126V80.4141V80.4155V80.4169V80.4184V80.4198V80.4212V80.4227V80.4241V80.4255V80.427V80.4284V80.4299V80.4313V80.4327V80.4342V80.4356V80.437V80.4385V80.4399V80.4413V80.4428V80.4442V80.4456V80.4471V80.4485V80.45V80.4514V80.4528V80.4543V80.4557V80.4571V80.4586V80.46V80.4614V80.4629V80.4643V80.4657V80.4672V80.4686V80.47V80.4715V80.4729V80.4744V80.4758V80.4772V80.4787V80.4801V80.4815V80.483V80.4844V80.4858V80.4873V80.4887V80.4901V80.4916V80.493V80.4945V80.4959V80.4973V80.4988V80.5002V80.5016V80.5031V80.5045V80.5059V80.5074V80.5088V80.5103V80.5117V80.5131V80.5146V80.516V80.5174V80.5189V80.5203V80.5217V80.5232V80.5246V80.5261V80.5275V80.5289V80.5304V80.5318V80.5332V80.5347V80.5361V80.5376V80.539V80.5404V80.5419V80.5433V80.5447V80.5462V80.5476V80.5491V80.5505V80.5519V80.5534V80.5548V80.5562V80.5577V80.5591V80.5606V80.562V80.5634V80.5649V80.5663V80.5677V80.5692V80.5706V80.5721V80.5735V80.5749V80.5764V80.5778V80.5793V80.5807V80.5821V80.5836V80.585V80.5865V80.5879V80.5893V80.5908V80.5922V80.5937V80.5951V80.5965V80.598V80.5994V80.6009V80.6023V80.6037V80.6052V80.6066V80.6081V80.6095V80.6109V80.6124V80.6138V80.6153V80.6167V80.6181V80.6196V80.621V80.6225V80.6239V80.6254V80.6268V80.6282V80.6297V80.6311V80.6326V80.634V80.6355V80.6369V80.6383V80.6398V80.6412V80.6427V80.6441V80.6456V80.647V80.6484V80.6499V80.6513V80.6528V80.6542V80.6557V80.6571V80.6586V80.66V80.6614V80.6629V80.6643V80.6658V80.6672V80.6687V80.6701V80.6716V80.673V80.6745V80.6759V80.6774V80.6788V80.6802V80.6817V80.6831V80.6846V80.686V80.6875V80.6889V80.6904V80.6918V80.6933V80.6947V80.6962V80.6976V80.6991V80.7005V80.702V80.7034V80.7049V80.7063V80.7078V80.7092V80.7107V80.7121V80.7136V80.715V80.7165V80.7179V80.7194V80.7208V80.7223V80.7237V80.7252V80.7266V80.7281V80.7295V80.731V80.7324V80.7339V80.7353V80.7368V80.7382V80.7397V80.7412V80.7426V80.7441V80.7455V80.747V80.7484V80.7499V80.7513V80.7528V80.7542V80.7557V80.7572V80.7586V80.7601V80.7615V80.763V80.7644V80.7659V80.7674V80.7688V80.7703V80.7717V80.7732V80.7746V80.7761V80.7776V80.779V80.7805V80.7819V80.7834V80.7849V80.7863V80.7878V80.7892V80.7907V80.7922V80.7936V80.7951V80.7965V80.798V80.7995V80.8009V80.8024V80.8038V80.8053V80.8068V80.8082V80.8097V80.8112V80.8126V80.8141V80.8156V80.817V80.8185V80.8199C68.4963 81.8025 68.4374 82.7875 68.3772 83.79C68.3619 84.0458 68.3458 84.3063 68.3296 84.5696C68.2826 85.3314 68.2342 86.1175 68.1969 86.8857C68.1684 87.473 68.1257 87.9943 68.0826 88.521C68.0489 88.9326 68.0149 89.3474 67.9873 89.7994C67.9476 90.4468 67.8908 91.1068 67.8333 91.774C67.8043 92.1111 67.7751 92.45 67.7479 92.7901ZM64.9548 75.7253L64.9495 75.7109L64.9432 75.6969C64.7105 75.1734 64.4373 74.669 64.126 74.1882L64.1181 74.176L64.1095 74.1643L63.9995 74.0143L63.988 73.9986L63.9754 73.9839C63.8667 73.8576 63.7487 73.7396 63.6224 73.6309L63.6022 73.6136L63.5803 73.5985C63.3596 73.4461 63.128 73.31 62.8873 73.1915L62.8515 73.1738L62.8134 73.1621C62.1356 72.9535 61.4436 72.7944 60.7428 72.6858L60.7344 72.6845L60.726 72.6835C59.8054 72.5729 58.8832 72.4799 57.9651 72.3875L57.9478 72.3857C57.0341 72.2937 56.1246 72.2022 55.2159 72.0935C54.2062 71.9724 53.1962 71.8814 52.1159 71.8208C51.2964 71.7697 50.4746 71.7697 49.6551 71.8209L49.6213 71.823L49.5881 71.8297C49.3418 71.879 49.0992 71.9452 48.8621 72.0277L48.8385 72.0359L48.8158 72.0464C48.6437 72.1263 48.4786 72.2206 48.3224 72.3284L48.285 72.3542L48.2528 72.3864L48.1428 72.4964L48.1044 72.5348L48.0751 72.5806C47.9271 72.8119 47.7915 73.051 47.6689 73.2967L47.6582 73.3181L47.6497 73.3404C47.4096 73.9646 47.2124 74.6044 47.0596 75.2554C46.9421 75.7548 46.8592 76.2699 46.7832 76.7426C46.7529 76.931 46.7237 77.1127 46.6938 77.2839L46.6914 77.2973L46.6898 77.3108C46.6572 77.5846 46.6259 77.8563 46.5948 78.1266C46.5294 78.6939 46.4648 79.2549 46.3906 79.8143L46.3905 79.8155C46.2582 80.833 46.1774 81.9168 46.1171 82.9612L46.117 82.9632C46.0175 84.819 45.9912 86.6826 45.9652 88.5354C45.9623 88.7408 45.9594 88.9461 45.9564 89.1512C45.9176 91.0467 46.0055 92.9426 46.2195 94.8264L46.2209 94.8384L46.2228 94.8504C46.2826 95.2176 46.373 95.5791 46.493 95.9313L46.5032 95.9609L46.5169 95.9891C46.5799 96.1184 46.6522 96.2428 46.7332 96.3616L46.7596 96.4004L46.7928 96.4335L46.9428 96.5835L46.9806 96.6214L47.0257 96.6504C47.3662 96.8696 47.7231 97.0623 48.0932 97.2269L48.1186 97.2381L48.1451 97.2465C49.1048 97.551 50.0874 97.7777 51.0834 97.9246L51.0918 97.9258L51.1002 97.9268C51.7253 97.9974 52.3537 98.0582 52.9841 98.0989C53.2823 98.1181 53.6098 98.152 53.9522 98.1884C53.9785 98.1912 54.0048 98.194 54.0311 98.1968C54.3453 98.2302 54.6699 98.2648 54.978 98.2885C55.6435 98.3397 56.4225 98.3506 57.1579 98.2899C57.8562 98.2874 58.5538 98.2498 59.2483 98.1772L59.2483 98.1773L59.254 98.1766C59.9472 98.0961 60.6347 97.9725 61.3125 97.8063C62.0056 97.6451 62.6895 97.4467 63.3613 97.212L63.3815 97.2049L63.401 97.1962C63.5967 97.1083 63.7873 97.0094 63.9717 96.8998L64.0424 96.8578L64.096 96.7953L64.156 96.7253L64.1769 96.7009L64.1946 96.6739C64.3427 96.4478 64.4766 96.2126 64.5954 95.9697L64.6059 95.9484L64.6142 95.9262C64.7963 95.4429 64.9318 94.9434 65.0191 94.4345L65.0223 94.4162L65.024 94.3977C65.0602 94.0203 65.0807 93.6427 65.0994 93.2754C65.1011 93.2425 65.1028 93.2097 65.1044 93.177C65.1214 92.8412 65.138 92.5148 65.1646 92.1909C65.198 91.7854 65.2262 91.2879 65.2548 90.785C65.2772 90.3912 65.2997 89.994 65.3251 89.6352C65.3404 89.4179 65.3586 89.1785 65.3778 88.9254C65.4326 88.2026 65.496 87.3681 65.5259 86.6199C65.5657 85.6247 65.6155 84.7187 65.6753 83.7715L65.6763 83.7557V83.74V83.739V83.7381V83.7371V83.7362V83.7353V83.7343V83.7334V83.7325V83.7315V83.7306V83.7297V83.7287V83.7278V83.7269V83.7259V83.725V83.7241V83.7231V83.7222V83.7213V83.7203V83.7194V83.7185V83.7175V83.7166V83.7157V83.7147V83.7138V83.7129V83.7119V83.711V83.7101V83.7091V83.7082V83.7073V83.7064V83.7054V83.7045V83.7036V83.7026V83.7017V83.7008V83.6998V83.6989V83.698V83.6971V83.6961V83.6952V83.6943V83.6934V83.6924V83.6915V83.6906V83.6896V83.6887V83.6878V83.6869V83.6859V83.685V83.6841V83.6832V83.6822V83.6813V83.6804V83.6795V83.6785V83.6776V83.6767V83.6758V83.6748V83.6739V83.673V83.6721V83.6712V83.6702V83.6693V83.6684V83.6675V83.6665V83.6656V83.6647V83.6638V83.6628V83.6619V83.661V83.6601V83.6592V83.6582V83.6573V83.6564V83.6555V83.6546V83.6536V83.6527V83.6518V83.6509V83.65V83.649V83.6481V83.6472V83.6463V83.6454V83.6444V83.6435V83.6426V83.6417V83.6408V83.6399V83.6389V83.638V83.6371V83.6362V83.6353V83.6344V83.6334V83.6325V83.6316V83.6307V83.6298V83.6289V83.6279V83.627V83.6261V83.6252V83.6243V83.6234V83.6224V83.6215V83.6206V83.6197V83.6188V83.6179V83.6169V83.616V83.6151V83.6142V83.6133V83.6124V83.6115V83.6105V83.6096V83.6087V83.6078V83.6069V83.606V83.6051V83.6041V83.6032V83.6023V83.6014V83.6005V83.5996V83.5987V83.5978V83.5968V83.5959V83.595V83.5941V83.5932V83.5923V83.5914V83.5905V83.5895V83.5886V83.5877V83.5868V83.5859V83.585V83.5841V83.5832V83.5822V83.5813V83.5804V83.5795V83.5786V83.5777V83.5768V83.5759V83.575V83.574V83.5731V83.5722V83.5713V83.5704V83.5695V83.5686V83.5677V83.5668V83.5659V83.5649V83.564V83.5631V83.5622V83.5613V83.5604V83.5595V83.5586V83.5577V83.5568V83.5558V83.5549V83.554V83.5531V83.5522V83.5513V83.5504V83.5495V83.5486V83.5477V83.5468V83.5458V83.5449V83.544V83.5431V83.5422V83.5413V83.5404V83.5395V83.5386V83.5377V83.5368V83.5358V83.5349V83.534V83.5331V83.5322V83.5313V83.5304V83.5295V83.5286V83.5277V83.5268V83.5259V83.5249V83.524V83.5231V83.5222V83.5213V83.5204V83.5195V83.5186V83.5177V83.5168V83.5159V83.5149V83.514V83.5131V83.5122V83.5113V83.5104V83.5095V83.5086V83.5077V83.5068V83.5059V83.505V83.5041V83.5031V83.5022V83.5013V83.5004V83.4995V83.4986V83.4977V83.4968V83.4959V83.495V83.4941V83.4932V83.4922V83.4913V83.4904V83.4895V83.4886V83.4877V83.4868V83.4859V83.485V83.4841V83.4832V83.4823V83.4813V83.4804V83.4795V83.4786V83.4777V83.4768V83.4759V83.475V83.4741V83.4732V83.4723V83.4713V83.4704V83.4695V83.4686V83.4677V83.4668V83.4659V83.465V83.4641V83.4632V83.4623V83.4613V83.4604V83.4595V83.4586V83.4577V83.4568V83.4559V83.455V83.4541V83.4532V83.4523V83.4513V83.4504V83.4495V83.4486V83.4477V83.4468V83.4459V83.445V83.4441V83.4432V83.4422V83.4413V83.4404V83.4395V83.4386V83.4377V83.4368V83.4359V83.435V83.434V83.4331V83.4322V83.4313V83.4304V83.4295V83.4286V83.4277V83.4268V83.4258V83.4249V83.424V83.4231V83.4222V83.4213V83.4204V83.4195V83.4186V83.4176V83.4167V83.4158V83.4149V83.414V83.4131V83.4122V83.4113V83.4103V83.4094V83.4085V83.4076V83.4067V83.4058V83.4049V83.4039V83.403V83.4021V83.4012V83.4003V83.3994V83.3985V83.3975V83.3966V83.3957V83.3948V83.3939V83.393V83.3921V83.3911V83.3902V83.3893V83.3884V83.3875V83.3866V83.3856V83.3847V83.3838V83.3829V83.382V83.3811V83.3802V83.3792V83.3783V83.3774V83.3765V83.3756V83.3747V83.3737V83.3728V83.3719V83.371V83.3701V83.3691V83.3682V83.3673V83.3664V83.3655V83.3646V83.3636V83.3627V83.3618V83.3609V83.36V83.359V83.3581V83.3572V83.3563V83.3554V83.3544V83.3535V83.3526V83.3517V83.3508V83.3498V83.3489V83.348V83.3471V83.3461V83.3452V83.3443V83.3434V83.3425V83.3415V83.3406V83.3397V83.3388V83.3378V83.3369V83.336V83.3351V83.3342V83.3332V83.3323V83.3314V83.3305V83.3295V83.3286V83.3277V83.3268V83.3258V83.3249V83.324V83.3231V83.3221V83.3212V83.3203V83.3193V83.3184V83.3175V83.3166V83.3156V83.3147V83.3138V83.3129V83.3119V83.311V83.3101V83.3091V83.3082V83.3073V83.3064V83.3054V83.3045V83.3036V83.3026V83.3017V83.3008V83.2998V83.2989V83.298V83.2971V83.2961V83.2952V83.2943V83.2933V83.2924V83.2915V83.2905V83.2896V83.2887V83.2877V83.2868V83.2859V83.2849V83.284V83.2831V83.2821V83.2812V83.2803V83.2793V83.2784V83.2775V83.2765V83.2756V83.2746V83.2737V83.2728V83.2718V83.2709V83.27V83.2619L65.6761 83.2539C65.6684 83.0149 65.661 82.7726 65.6536 82.5273C65.6034 80.872 65.5492 79.0861 65.3664 77.3148C65.3669 77.1887 65.3669 76.9593 65.2595 76.7276C65.1786 76.3876 65.0769 76.0528 64.9548 75.7253Z" fill="#4D4962" stroke="black"/>
</svg>
