<svg width="30" height="30" viewBox="0 0 30 30" fill="none" xmlns="http://www.w3.org/2000/svg">
<ellipse cx="15" cy="15" rx="12.5" ry="12.5" fill="#03A9F4"/>
<path fill-rule="evenodd" clip-rule="evenodd" d="M11.7342 8.92743C11.7342 9.70561 11.1417 10.3354 10.2151 10.3354C9.3246 10.3354 8.73208 9.70561 8.75041 8.92743C8.73208 8.11143 9.32458 7.5 10.2328 7.5C11.1417 7.5 11.7165 8.11143 11.7342 8.92743ZM8.82491 20.5119V11.4476H11.642V20.5113H8.82491V20.5119Z" fill="white"/>
<path fill-rule="evenodd" clip-rule="evenodd" d="M13.8998 14.3404C13.8998 13.2098 13.8626 12.2459 13.8253 11.4488H16.2722L16.4023 12.6906H16.4579C16.8286 12.1159 17.7552 11.2454 19.2566 11.2454C21.1098 11.2454 22.5 12.4688 22.5 15.1369V20.5131H19.6829V15.4899C19.6829 14.3215 19.2755 13.5249 18.2561 13.5249C17.4773 13.5249 17.0143 14.0625 16.8292 14.5811C16.7547 14.7667 16.718 15.0257 16.718 15.2859V20.5131H13.901V14.3404H13.8998Z" fill="white"/>
</svg>
