<svg width="141" height="147" viewBox="0 0 141 147" fill="none" xmlns="http://www.w3.org/2000/svg">
<path d="M15.9763 0H14.7863C14.0363 0 13.2763 0.149995 12.5463 0.259995L11.6563 0.389999C10.7563 0.509999 9.85632 0.670003 9.17632 0.800003L8.34631 0.940002C7.76449 1.02098 7.18709 1.13112 6.61631 1.27C6.25631 1.37 5.88631 1.49 5.50631 1.63C5.06292 1.7924 4.62892 1.97935 4.20632 2.19C3.8498 2.41507 3.51502 2.67283 3.20632 2.95999L3.10632 3.05L3.00631 3.14C2.62457 3.48961 2.28857 3.88608 2.00631 4.31999C1.8595 4.53831 1.73233 4.76921 1.62631 5.00999L1.37631 5.23C0.756985 5.85408 0.399296 6.69106 0.376314 7.56999C0.246314 9.23999 0.096313 11.46 0.016313 13.72C0.016313 14.39 0.016313 15.07 0.016313 15.72C0.016313 15.98 0.016313 16.23 0.016313 16.48C0.016313 17.57 0.016313 18.66 0.016313 19.75C0.016313 21.16 0.016313 22.59 0.016313 23.98C0.016313 26.39 -0.0536851 28.87 0.0963149 31.31C0.172417 32.5143 0.31934 33.713 0.536317 34.9C0.710294 35.8387 1.04884 36.7392 1.53632 37.56C2.43594 38.9507 3.75187 40.0216 5.29631 40.62C6.04849 40.9559 6.82799 41.2269 7.62631 41.43C8.28631 41.59 8.96631 41.69 9.62631 41.79C10.5663 41.92 11.5163 42.02 12.3263 42.1C13.1363 42.18 14.0563 42.25 15.0163 42.3C15.9763 42.35 16.6763 42.37 17.3963 42.37C18.5397 42.3767 19.6823 42.3065 20.8163 42.16L21.2663 42.11C21.8374 42.0459 22.4048 41.9525 22.9663 41.83C23.4665 41.7152 23.9604 41.5751 24.4463 41.41C25.5131 41.0531 26.5497 40.6117 27.5463 40.09C27.9123 39.8947 28.2663 39.6777 28.6063 39.44C29.1876 39.0722 29.7304 38.6467 30.2263 38.17C31.0402 37.3852 31.7163 36.4691 32.2263 35.46C32.8614 34.1946 33.3222 32.849 33.5963 31.46C33.8344 30.2333 34.0079 28.9949 34.1163 27.75C34.2863 26.05 34.3163 24.31 34.3563 22.62V22.09C34.3563 20.01 34.4163 18.09 34.4163 16.2C34.4218 14.0924 34.2006 11.9903 33.7563 9.92999C33.5024 8.80968 33.1199 7.72248 32.6163 6.69C32.1988 5.83855 31.6138 5.08008 30.8963 4.45999C30.2876 3.9351 29.6158 3.48832 28.8963 3.13C27.8687 2.66528 26.8134 2.26451 25.7363 1.92999L25.2563 1.77C24.6463 1.57 24.0063 1.35999 23.3763 1.17999C21.4171 0.610223 19.408 0.228498 17.3763 0.0399933C17.0063 0.0199933 16.4863 0 15.9763 0Z" fill="#03A9F4"/>
<path d="M72.7464 25.2299C73.3331 25.2299 73.9231 25.2299 74.5164 25.2299C75.9492 25.3012 77.3738 25.4885 78.7764 25.7899C79.3699 25.9143 79.952 26.0882 80.5164 26.3099C81.2705 26.5711 81.9867 26.9308 82.6464 27.3799C83.3875 27.8575 83.9582 28.5576 84.2764 29.3799C84.4774 29.8107 84.6478 30.2551 84.7864 30.7099C84.9691 31.2984 85.1062 31.9002 85.1964 32.5099C85.5915 35.3148 85.712 38.1515 85.5564 40.9799C85.5564 42.3099 85.4964 43.6499 85.4364 44.9799C85.4014 46.4655 85.2812 47.948 85.0764 49.4199C85.0219 49.9528 84.9009 50.4769 84.7164 50.9799C84.5625 51.4104 84.3752 51.8284 84.1564 52.2299C83.9365 52.613 83.6857 52.9776 83.4064 53.3199C83.164 53.6407 82.8855 53.9326 82.5764 54.1899C82.2622 54.4346 81.9276 54.652 81.5764 54.8399C81.3251 54.9749 81.0644 55.0919 80.7964 55.1899C80.5002 55.3158 80.1962 55.4227 79.8864 55.5099C79.5844 55.5966 79.2771 55.6634 78.9664 55.7099C78.4964 55.7699 78.0364 55.8499 77.5664 55.8799C76.2264 55.9699 74.8864 55.9899 73.5664 55.9499L71.4664 55.8599L70.4664 55.7699C70.0031 55.7284 69.5424 55.6617 69.0864 55.5699C68.6901 55.5067 68.3014 55.4028 67.9264 55.2599C67.4241 55.0745 66.9444 54.833 66.4964 54.5399C66.0189 54.2141 65.6082 53.8 65.2864 53.3199C64.9907 52.845 64.7492 52.3385 64.5664 51.8099C64.3094 51.0397 64.1515 50.2399 64.0964 49.4299C63.9631 48.1946 63.9096 46.952 63.9364 45.7099C63.9364 42.9599 64.0464 40.1999 64.0864 37.4499C64.0864 36.1165 64.0864 34.7832 64.0864 33.4499V32.9199C64.0282 32.3752 64.0048 31.8275 64.0164 31.2799C64.0164 31.1599 64.0164 31.0399 64.0164 30.9199C64.0164 30.4099 64.0164 29.9199 63.9464 29.3999C63.9353 29.1147 63.9889 28.8307 64.1032 28.5691C64.2175 28.3076 64.3895 28.0754 64.6064 27.8899C64.6898 27.7254 64.7868 27.5682 64.8964 27.4199C65.2764 26.8687 65.7888 26.4217 66.3864 26.1199C66.7564 25.9325 67.141 25.7753 67.5364 25.6499C67.8228 25.5735 68.1132 25.5135 68.4064 25.4699C69.1702 25.3416 69.9421 25.2681 70.7164 25.2499L72.7464 25.2299ZM69.1764 28.9799C68.9462 29.0212 68.719 29.078 68.4964 29.1499L68.2764 29.2799L68.2064 29.3499V29.3999C68.2864 30.6699 68.3564 31.9399 68.3864 33.2199C68.4664 35.8865 68.5331 38.5732 68.5864 41.2799C68.5864 43.8499 68.5864 46.4099 68.9364 48.9599C69.0198 49.5469 69.1537 50.1257 69.3364 50.6899V50.7599L69.5364 50.8699C70.0069 51.025 70.4882 51.1453 70.9764 51.2299C72.1964 51.3699 73.4264 51.4599 74.6564 51.5299C75.9116 51.6149 77.1712 51.6149 78.4264 51.5299C78.8614 51.4554 79.2896 51.345 79.7064 51.1999L80.0164 51.0199C80.1472 50.8972 80.2708 50.767 80.3864 50.6299C80.5353 50.4023 80.6689 50.1651 80.7864 49.9199C80.8861 49.6425 80.9663 49.3584 81.0264 49.0699C81.2362 46.5891 81.3163 44.099 81.2664 41.6099C81.325 38.9843 81.2482 36.3575 81.0364 33.7399C80.9142 32.8249 80.7032 31.924 80.4064 31.0499L80.3064 30.8799L80.1464 30.7099C79.8256 30.5076 79.4915 30.3272 79.1464 30.1699C78.9064 30.0799 78.6764 29.9899 78.4264 29.9199C78.1764 29.8499 77.6664 29.7099 77.2864 29.6199C76.5683 29.4362 75.8405 29.2927 75.1064 29.1899C74.1064 29.0699 73.1764 28.9699 72.2064 28.9099L70.4864 28.9199C70.0489 28.9114 69.6113 28.9315 69.1764 28.9799Z" fill="#03A9F4"/>
<path d="M102.236 92.9199C103.526 92.9199 104.826 92.9199 106.116 93.0099C106.766 93.0099 107.406 93.0999 108.056 93.0999C108.706 93.0999 109.256 93.0999 109.856 93.0999C111.29 93.1374 112.716 93.3115 114.116 93.6199C115.356 93.8999 116.606 94.1399 117.846 94.4399C119.413 94.687 120.911 95.2556 122.246 96.1099C122.689 96.4197 123.098 96.775 123.466 97.1699C123.867 97.5886 124.204 98.0637 124.466 98.5799C124.827 99.3008 125.118 100.054 125.336 100.83C125.676 102.04 125.976 103.26 126.286 104.48C126.936 106.98 127.346 109.48 127.746 112.08C127.956 113.39 128.176 114.7 128.356 116.02C128.576 117.59 128.716 119.17 128.806 120.76C128.946 123.38 129.066 126 128.986 128.62C128.986 130.08 128.876 131.54 128.796 133C128.707 134.548 128.536 136.09 128.286 137.62C128.139 138.504 127.877 139.364 127.506 140.18C127.207 140.8 126.827 141.379 126.376 141.9C125.863 142.501 125.255 143.014 124.576 143.42C123.989 143.77 123.378 144.078 122.746 144.34H122.676L122.346 144.48L122.206 144.54C121.596 144.79 120.976 145.04 120.346 145.26C119.716 145.48 119.096 145.66 118.466 145.84L117.286 146.17C116.47 146.368 115.642 146.512 114.806 146.6C114.186 146.68 113.546 146.74 112.916 146.79C110.157 146.982 107.39 147.028 104.626 146.93C101.742 146.885 98.8654 146.604 96.0264 146.09C94.7488 145.852 93.4866 145.538 92.2464 145.15C91.4471 144.901 90.6625 144.607 89.8964 144.27C89.3154 144.031 88.7675 143.719 88.2664 143.34C87.6141 142.893 87.0595 142.318 86.6364 141.65C86.3464 141.152 86.134 140.612 86.0064 140.05C85.8518 139.241 85.7515 138.422 85.7064 137.6C85.6264 136.33 85.5964 135.06 85.6364 133.79C85.8264 128.27 85.9164 122.74 86.0264 117.22C86.0964 113.8 86.1664 110.38 86.1964 106.96C86.1054 106.858 86.025 106.748 85.9564 106.63C85.7775 106.327 85.6841 105.982 85.6864 105.63C85.6114 104.338 85.6114 103.042 85.6864 101.75C85.6551 100.235 85.9626 98.7313 86.5864 97.3499C87.0317 96.4475 87.7256 95.6912 88.5864 95.1699C89.2222 94.8342 89.8929 94.5693 90.5864 94.3799C91.1764 94.2099 91.7664 93.9999 92.3764 93.8699C92.9864 93.7399 93.5464 93.5999 94.1364 93.5099C94.7264 93.4199 95.3164 93.3199 95.9064 93.2199C96.6764 93.0999 97.4464 93.0199 98.2264 92.9499C99.4864 92.9199 100.876 92.9199 102.236 92.9199ZM94.8164 97.5999L93.2964 97.8199L93.6264 97.7699C93.0364 97.8799 92.4564 98.0199 91.8764 98.1799C91.4764 98.2899 91.0764 98.3899 90.6864 98.5299L90.3264 98.7199L90.2264 98.8299C90.1064 99.0099 89.9964 99.1799 89.8864 99.3699C89.7764 99.5599 89.7964 99.7299 89.7564 99.9199C89.6764 100.76 89.6764 101.62 89.6664 102.47C89.6564 103.32 89.6664 103.89 89.6664 104.6V105.22C89.7264 110.68 89.8464 116.15 89.9664 121.61C90.0264 124.44 90.0764 127.26 90.1464 130.08C90.2064 132.54 90.2764 135 90.5664 137.44C90.6344 137.995 90.7481 138.544 90.9064 139.08V139.17L91.1664 139.42C91.5304 139.661 91.9114 139.875 92.3064 140.06C93.3359 140.455 94.3877 140.789 95.4564 141.06C96.0564 141.21 96.6564 141.36 97.2664 141.47C97.8764 141.58 98.6764 141.71 99.3864 141.81C102.044 142.09 104.715 142.221 107.386 142.2C108.686 142.2 109.976 142.2 111.266 142.2C112.556 142.2 113.636 142.05 114.816 141.91C115.975 141.689 117.117 141.391 118.236 141.02C118.976 140.8 119.696 140.53 120.416 140.24L120.746 140.09C121.259 139.858 121.75 139.584 122.216 139.27L122.606 138.9C122.716 138.73 122.816 138.55 122.916 138.37C123.062 137.929 123.172 137.478 123.246 137.02C123.375 135.774 123.438 134.522 123.436 133.27C123.436 131.81 123.436 130.34 123.436 128.88C123.436 127.42 123.376 126.15 123.306 124.79C123.166 122.28 123.046 119.79 122.736 117.29C122.496 115.55 122.216 113.82 121.986 112.09C121.756 110.36 121.426 108.38 120.986 106.53C120.786 105.59 120.586 104.64 120.356 103.7C120.126 102.76 119.966 102.09 119.696 101.31C119.596 101.13 119.496 100.95 119.386 100.78C119.25 100.62 119.103 100.47 118.946 100.33C118.789 100.227 118.625 100.133 118.456 100.05C117.238 99.6072 115.996 99.2332 114.736 98.9299C114.056 98.7599 113.376 98.5799 112.736 98.3899C112.187 98.2366 111.63 98.1164 111.066 98.0299C110.546 97.9699 110.066 97.9299 109.506 97.8899C108.946 97.8499 108.356 97.8899 107.776 97.8099L105.926 97.6699C104.566 97.5799 103.196 97.4999 101.826 97.4399C100.456 97.3799 99.1964 97.3099 97.8864 97.3599C96.8764 97.3499 95.8464 97.4699 94.8164 97.5999Z" fill="#99DDC6"/>
<path d="M112.376 35.3799H113.376C114.716 35.3799 116.056 35.4699 117.376 35.5499C118.696 35.6299 120.096 35.7199 121.456 35.7799C122.816 35.8399 124.026 35.9899 125.316 36.0699C126.606 36.1499 127.956 36.2799 129.316 36.3699C130.779 36.4195 132.229 36.6479 133.636 37.0499C134.375 37.3013 135.091 37.6158 135.776 37.9899C136.561 38.3874 137.261 38.9343 137.836 39.5999C138.32 40.1749 138.726 40.8102 139.046 41.4899C139.356 42.2199 139.636 42.9499 139.876 43.7099C140.274 44.9187 140.566 46.1601 140.746 47.4199C140.961 48.9309 141.082 50.4538 141.106 51.9799C141.105 53.23 141.028 54.479 140.876 55.7199C140.726 57.2199 140.616 58.7199 140.346 60.2099C140.128 61.5172 139.794 62.8023 139.346 64.0499C139.08 64.7765 138.745 65.4763 138.346 66.1399C138.154 66.4271 137.947 66.7042 137.726 66.9699C137.6 67.1531 137.456 67.3239 137.296 67.4799C136.873 67.8658 136.407 68.2014 135.906 68.4799C134.458 69.2018 132.873 69.6107 131.256 69.6799C129.926 69.8299 128.596 69.9399 127.256 70.0199C125.916 70.0999 124.586 70.0999 123.256 70.1099C121.926 70.1199 120.606 70.1099 119.256 70.1099C117.906 70.1099 116.446 70.1099 115.036 70.0299C113.626 69.9499 112.486 69.8499 111.216 69.7599C109.946 69.6699 108.566 69.5399 107.216 69.3799C106.306 69.2699 105.396 69.1599 104.496 68.9799C103.821 68.8493 103.154 68.6824 102.496 68.4799C100.764 68.0808 99.1859 67.184 97.9564 65.8999C97.6089 65.4994 97.2945 65.0713 97.0164 64.6199C96.742 64.1485 96.511 63.6531 96.3264 63.1399C96.0419 62.2943 95.8573 61.4183 95.7764 60.5299C95.6514 59.2763 95.6514 58.0134 95.7764 56.7599C95.8764 55.3599 96.0564 53.9599 96.2464 52.5699L96.6364 49.6699C96.8264 48.0499 97.0064 46.4399 97.2764 44.8399C97.3895 44.2008 97.5431 43.5695 97.7364 42.9499C97.9172 42.3571 98.1343 41.776 98.3864 41.2099C98.6691 40.6384 99.0218 40.1043 99.4364 39.6199C99.9398 38.9845 100.533 38.4254 101.196 37.9599L101.486 37.9199L101.676 37.7999C102.236 37.4721 102.821 37.1911 103.426 36.9599C104.901 36.296 106.5 35.9551 108.116 35.9599C108.404 35.8011 108.728 35.7185 109.056 35.7199H109.346C110.026 35.6299 110.696 35.5499 111.346 35.5099C111.716 35.3899 112.046 35.3799 112.376 35.3799ZM108.756 40.8499C108.561 40.8726 108.368 40.906 108.176 40.9499C107.734 41.048 107.3 41.1784 106.876 41.3399C106.216 41.6199 105.581 41.9544 104.976 42.3399L104.776 42.4699C104.639 42.5991 104.509 42.736 104.386 42.8799C104.204 43.145 104.04 43.4223 103.896 43.7099C103.631 44.5498 103.43 45.4091 103.296 46.2799C102.996 48.6999 102.806 51.1399 102.506 53.5599C102.346 54.9099 102.226 56.2599 102.156 57.6199C102.086 58.6754 102.086 59.7344 102.156 60.7899C102.226 61.0799 102.296 61.3699 102.386 61.6599C102.487 61.8488 102.597 62.0324 102.716 62.2099L102.856 62.3599C103.143 62.5409 103.44 62.7045 103.746 62.8499C104.541 63.1601 105.356 63.4141 106.186 63.6099C107.076 63.8199 107.996 63.9399 108.906 64.0799C110.006 64.2199 111.106 64.3299 112.206 64.4699C113.576 64.6499 114.936 64.7599 116.316 64.8299C119.026 64.9799 121.746 65.0099 124.466 65.0499C126.941 65.0985 129.417 64.9815 131.876 64.6999C132.335 64.6335 132.787 64.5264 133.226 64.3799L133.646 64.1399L133.836 63.9399C134.111 63.5199 134.352 63.0785 134.556 62.6199C134.946 61.3884 135.237 60.1277 135.426 58.8499C135.526 58.0299 135.596 57.2099 135.656 56.3899C135.716 55.5699 135.836 54.5999 135.906 53.6999C135.976 52.7999 135.986 51.8399 135.976 50.8999C135.966 49.9599 135.926 49.0899 135.826 48.1899C135.718 47.3112 135.557 46.4397 135.346 45.5799C135.139 44.7005 134.885 43.8326 134.586 42.9799C134.479 42.7449 134.355 42.5177 134.216 42.2999L134.126 42.2099C133.849 42.031 133.562 41.8675 133.266 41.7199C132.673 41.4985 132.06 41.3312 131.436 41.2199C130.436 41.1299 129.436 41.1099 128.516 41.0399C127.396 40.9499 126.276 40.9099 125.156 40.8199C123.846 40.7299 122.536 40.6199 121.226 40.5599C119.916 40.4999 118.716 40.4399 117.456 40.3599H116.836C114.126 40.5099 111.426 40.5599 108.756 40.8499Z" fill="#4D4962"/>
<path d="M68.9963 80.08C68.9963 80.33 68.9963 80.5699 68.9963 80.8199C68.9963 81.8199 68.9363 82.8199 68.8763 83.8199C68.8163 84.8199 68.7463 85.88 68.6963 86.91C68.6463 87.94 68.5463 88.85 68.4863 89.83C68.4263 90.81 68.3263 91.83 68.2463 92.83C68.2118 93.9401 68.0405 95.0417 67.7363 96.11C67.5494 96.6672 67.3117 97.2061 67.0263 97.72C66.7305 98.3207 66.3154 98.8549 65.8063 99.2899C65.3741 99.6554 64.8927 99.9583 64.3763 100.19C63.828 100.433 63.2672 100.646 62.6963 100.83C61.7802 101.13 60.8401 101.351 59.8863 101.49C58.7428 101.65 57.5907 101.74 56.4363 101.76C55.487 101.755 54.5387 101.695 53.5963 101.58C52.4663 101.47 51.3263 101.39 50.2063 101.18C49.2145 101.014 48.2403 100.756 47.2963 100.41C46.7429 100.201 46.2105 99.9396 45.7063 99.63C45.4863 99.49 45.2863 99.32 45.0863 99.17C44.9493 99.0649 44.8191 98.9513 44.6963 98.83C44.3947 98.5129 44.1328 98.1603 43.9163 97.78C43.3667 96.6839 43.0533 95.4847 42.9963 94.2599C42.8863 93.2599 42.8063 92.2599 42.7463 91.2599C42.6863 90.2599 42.6863 89.2599 42.6763 88.2599C42.6663 87.2599 42.6763 86.2599 42.6763 85.2599C42.6763 84.2599 42.6763 83.13 42.7263 82.06C42.7763 80.99 42.8663 80.14 42.9363 79.17C43.0063 78.2 43.0963 77.17 43.2263 76.17C43.3063 75.48 43.3863 74.79 43.5263 74.11C43.6271 73.6038 43.7539 73.1031 43.9063 72.61C44.2151 71.2895 44.9116 70.0915 45.9063 69.17C46.2195 68.9062 46.554 68.6687 46.9063 68.4599C47.2638 68.2543 47.6385 68.0803 48.0263 67.94C48.6732 67.7183 49.3449 67.5772 50.0263 67.52C50.9739 67.425 51.9287 67.425 52.8763 67.52C53.9463 67.59 54.9963 67.73 56.0563 67.88L58.2463 68.17C59.4663 68.32 60.6963 68.4499 61.9063 68.6499C62.389 68.7406 62.8663 68.8575 63.3363 69C63.7861 69.1396 64.2269 69.3066 64.6563 69.5C65.0882 69.7112 65.4915 69.9767 65.8563 70.2899C66.336 70.6726 66.7601 71.1203 67.1163 71.6199L67.2363 71.81L67.3263 71.95C67.5715 72.3738 67.7854 72.815 67.9663 73.27C68.4673 74.3899 68.7263 75.603 68.7263 76.83C68.8496 77.05 68.9149 77.2977 68.9163 77.55V77.77C68.9863 78.28 69.0463 78.77 69.0763 79.31C68.9963 79.58 68.9963 79.83 68.9963 80.08ZM64.8663 77.34C64.8663 77.19 64.8663 77.0399 64.7863 76.8999C64.7082 76.5604 64.608 76.2264 64.4863 75.8999C64.2642 75.4004 64.0034 74.9189 63.7063 74.4599L63.5963 74.31C63.504 74.2026 63.4037 74.1023 63.2963 74.0099C63.0956 73.8714 62.8851 73.7478 62.6663 73.64C62.0116 73.4385 61.3432 73.2848 60.6663 73.1799C58.8363 72.9599 56.9963 72.81 55.1563 72.59C54.1563 72.47 53.1563 72.3799 52.0863 72.3199C51.2871 72.27 50.4855 72.27 49.6863 72.3199C49.4625 72.3648 49.2419 72.425 49.0263 72.5C48.8798 72.5679 48.7393 72.6482 48.6063 72.74L48.4963 72.8499C48.3579 73.0664 48.231 73.2901 48.1163 73.52C47.8844 74.1229 47.6939 74.741 47.5463 75.3699C47.3863 76.0499 47.2963 76.7399 47.1863 77.3699C47.0863 78.2099 46.9963 79.05 46.8863 79.88C46.7563 80.88 46.6763 81.95 46.6163 82.99C46.5063 85.04 46.4863 87.1 46.4563 89.16C46.4179 91.0337 46.5048 92.9078 46.7163 94.77C46.7717 95.1097 46.8553 95.4442 46.9663 95.77C47.0188 95.8775 47.0789 95.9811 47.1463 96.08L47.2963 96.2299C47.6153 96.4353 47.9496 96.6159 48.2963 96.77C49.2304 97.0663 50.1868 97.287 51.1563 97.4299C51.7763 97.4999 52.3963 97.5599 53.0163 97.5999C53.6363 97.6399 54.3663 97.7399 55.0163 97.7899C55.6663 97.8399 56.4263 97.8499 57.1363 97.7899C57.8244 97.7882 58.512 97.7515 59.1963 97.6799C59.8698 97.6018 60.5378 97.4815 61.1963 97.3199C61.8729 97.1627 62.5406 96.9691 63.1963 96.74C63.3747 96.66 63.5483 96.5698 63.7163 96.47L63.7763 96.3999C63.913 96.1912 64.0366 95.9741 64.1463 95.75C64.3172 95.2964 64.4444 94.8276 64.5263 94.3499C64.5963 93.6199 64.6063 92.8799 64.6663 92.1499C64.7263 91.4199 64.7663 90.4499 64.8263 89.5999C64.8863 88.7499 64.9863 87.5999 65.0263 86.5999C65.0663 85.5999 65.1163 84.69 65.1763 83.74C65.1763 83.58 65.1763 83.43 65.1763 83.27C65.1163 81.4 65.0763 79.36 64.8663 77.34Z" fill="#4D4962"/>
</svg>
