<svg width="24" height="24" viewBox="0 0 24 24" fill="none" xmlns="http://www.w3.org/2000/svg">
<g clip-path="url(#clip0_6_30)">
<path d="M23.8621 4.54561C23.7025 4.37113 23.4457 4.32579 23.236 4.43501C23.0205 4.53294 22.7975 4.61355 22.5692 4.67606C22.9253 4.22038 23.1942 3.70282 23.3623 3.14941C23.4363 2.87094 23.2705 2.58519 22.992 2.51118C22.8433 2.47166 22.6848 2.49979 22.5588 2.58803C21.7655 3.01734 20.9222 3.34717 20.0481 3.56997C18.2488 1.87159 15.5078 1.65989 13.4689 3.06181C11.8983 4.12372 11.0337 5.95907 11.215 7.84621C7.8104 7.5561 4.67801 5.86902 2.56229 3.18595C2.45361 3.05447 2.28916 2.98208 2.11879 2.99083C1.94603 3.0012 1.7897 3.09658 1.70141 3.24543C0.983355 4.41921 0.775325 5.83512 1.1254 7.16582C1.30491 7.84954 1.61263 8.49295 2.03221 9.06187C1.84321 8.96932 1.66536 8.85555 1.50214 8.72275C1.27835 8.54123 0.949801 8.57547 0.768233 8.79925C0.692905 8.89214 0.65172 9.00806 0.651671 9.12766C0.682682 11.0581 1.74274 12.825 3.43154 13.7608C3.2037 13.7328 2.97879 13.6846 2.75951 13.6168C2.48359 13.5338 2.1926 13.6901 2.1096 13.9661C2.0734 14.0864 2.08186 14.2159 2.13342 14.3305C2.86639 15.9724 4.33175 17.1716 6.08619 17.5653C4.41466 18.5084 2.4899 18.9046 0.581773 18.6986C0.334367 18.667 0.099972 18.8174 0.0255741 19.0554C-0.0511227 19.2917 0.0492484 19.5491 0.265594 19.6711C2.60196 21.0593 5.25979 21.8145 7.977 21.8625C10.5838 21.8529 13.1298 21.0743 15.2961 19.6242C19.4314 16.8798 22.0089 11.9524 21.6499 7.54363C22.5341 6.88912 23.3012 6.08967 23.9185 5.17909C24.0454 4.97952 24.0222 4.71959 23.8621 4.54561Z" fill="#03A9F4"/>
</g>
<defs>
<clipPath id="clip0_6_30">
<rect width="24" height="24" fill="white"/>
</clipPath>
</defs>
</svg>
